<svg xmlns="http://www.w3.org/2000/svg" viewBox="0 0 64 64"><path fill="#d9d9d9" d="M3 12v6.394A6.738 6.738 0 0 0 6 24v19a2 2 0 0 0 2 2 2 2 0 0 0 2-2V24a6.738 6.738 0 0 0 3-5.606V12Z"/><circle cx="32" cy="33" r="18" fill="#6cbae5"/><circle cx="32" cy="33" r="14" fill="#d9d9d9"/><path fill="#d9d9d9" d="M55.509 12.023A5.145 5.145 0 0 0 51 17.215V19a5 5 0 0 0 3 4.578V43a2 2 0 0 0 2 2 2 2 0 0 0 2-2V23.578A5 5 0 0 0 61 19v-2a5 5 0 0 0-5.491-4.977Z"/><path fill="#b9b9b9" d="M6 20a1 1 0 0 1-1-1v-7a1 1 0 0 1 2 0v7a1 1 0 0 1-1 1zm4 0a1 1 0 0 1-1-1v-7a1 1 0 0 1 2 0v7a1 1 0 0 1-1 1z"/><path fill="#428dc5" d="M28 38a1 1 0 0 1-.707-1.707L31 32.586V25a1 1 0 0 1 2 0v8a1 1 0 0 1-.293.707l-4 4A1 1 0 0 1 28 38ZM31 44h2v3h-2zM43 32h3v2h-3zM18 32h3v2h-3zM31 19h2v3h-2z"/><path fill="#b9b9b9" d="m56.515 21.857-1.03-1.714.659-.395a2.213 2.213 0 0 0 0-3.5l-.659-.395 1.03-1.714.658.395A4 4 0 0 1 59 18a4 4 0 0 1-1.827 3.462Z"/></svg>