<svg id="Capa_1" data-name="Capa 1" xmlns="http://www.w3.org/2000/svg" viewBox="0 0 276.48 206.56"><polygon points="20.16 165.09 0 206.56 276.48 206.56 257.47 165.09 20.16 165.09" style="fill:#8a8cc4"/><path d="M175.1,18.78l-1.72,8.64,21.31,14.4C227.52,23.39,195.26-8.29,175.1,18.78Z" style="fill:#d27228"/><path d="M148,135.71l-4.61,8.07c-36.28-16.13-53.56-1.73-43.2,13.24l19.59,12.1,25.34,4c64.51,0,50.11-6.33,82.95-6.33,24.19-7.49,22.46-35.14,6.33-31.68,0,0-15,.57-27.65,6.33l-2.88-6.33Z" style="fill:#90619d"/><path d="M119.81,169.7s0-13.83,16.7-23c11.52,2.88,13.83,8.06,23.62,12.67L182,169.12l-1.73,12.67C150.91,170.27,135.36,179.49,119.81,169.7Z" style="fill:#d7b690"/><path d="M178,181.22c1.16,5.18,7.49,7.48,13.25,5.18,1.15-.58,4-.58,9.79,2.3,21.89,7.49,16.71-17.28,8.07-20.73l-28.23,4Z" style="fill:#68687a"/><path d="M209.66,146.66s14.4,9.21,18.44,20.16c-21.89,14.4-61.06,18.43-72.58,25.34l.58-10.94c10.36-8.07,16.7-14.4,31.68-21.32C194.11,156.45,199.3,149,209.66,146.66Z" style="fill:#e4c7ab"/><path d="M160.7,190.43c-.57-2.3-2.3-8.64.58-13.25,1.73-3.45-5.18-2.3-9.22-1.72-13.82,0-19-3.46-26.49,1.72-6.91,5.19-7.49,15.56,2.3,16.13,5.76,0,12.67-3.45,24.77-1.15C156.67,195,161.28,192.74,160.7,190.43Z" style="fill:#68687a"/><path d="M203.9,135.14a34.35,34.35,0,0,0-5.18-12.1c-5.76-8.64-2.88-15.55,1.73-41.47l-2.31-17.86-7.48-15.55c-6.92.58-31.68-1.15-37.44-2.3L142.85,70.05,142.27,77s.58,24.77,4.61,38.59a21.26,21.26,0,0,1,.58,10.37,27.54,27.54,0,0,0,0,9.79C148,135.71,176.83,153.57,203.9,135.14Z" style="fill:#ff4990"/><path d="M142.85,77.54C148,68.9,151.49,58,153.79,45.86c-15.55-8.07-25.34-2.88-38-6.34-8.64-2.3-11.52-2.88-16.71-5.76C94.46,31.46,84.67,28,67.39,28c-23.61-5.18-66.24,4-34.56,9.22,0,0,11.52,1.15,15.55-1.73,0,0,1.73-1.73,9.22,2.3,0,0,21.31,7.49,32.26,9.79A28.44,28.44,0,0,1,99.65,51C141.7,71.2,134.78,51,142.85,77.54Z" style="fill:#e4c7ab"/><path d="M171.07,33.76c-5.76,11.52-5.18,12.1-13.82,12.67-1.73,9.79-2.31,19.59-.58,28.8a34.56,34.56,0,0,0,30-1.73s3.46-14.4,0-25.34l.58-8.06Z" style="fill:#d7b690"/><path d="M175.1,46.43c-4-3.45-7.48-12.09-3.45-19,0,0-1.15-1.72,1.73-6.91,0,0,4.6-8.06,3.45-.57,0,0,8.64-8.07,14.4-4.61,0,0,8.64,4.61,10.37,11.52,0,0,2.3,5.18-2.3,8.64l-1.73,2.88s5.18-2.31,2.3,1.15l-6.33,5.18s-1.73,1.73-1.73-.57C189.5,50.46,179.71,50.46,175.1,46.43Z" style="fill:#e4c7ab"/><path d="M201,81.57c-5.18-12.67-8.64-23.62-9.79-33.41,0,0,12.67-7.49,20.74-8.06a9.3,9.3,0,0,0,5.18-1.73,72,72,0,0,1,15-6.91c-10.95-16.13-27.65-19.59-36.29-23,0,0-1.15-1.16-12.1,2.88,0,0-6.91,1.72,2.31-6.92,3.45-3.45,5.76-5.76,9.79-3.45,24.19,5.76,8.64-.58,55.3,24.19,0,0,9.21,4.61,1.15,12.1,0,0-15.55,16.12-35.14,21.88C206.78,62.56,207.36,64.86,201,81.57Z" style="fill:#e4c7ab"/><path d="M186.62,25.7c-.57-.58-3.45-5.19-4-5.19h-2.3a3.48,3.48,0,0,1,2.3-.57C184.32,20.51,186.05,24.54,186.62,25.7ZM197,34.91c.58-2.88-3.45-3.45-5.76-5.18,1.73.57,4.61,1.15,5.19,2.88A4.39,4.39,0,0,1,197,34.91Zm-2.88.58c-2.88-.58-6.33-4-3.45-3.46Q194.11,32.9,194.11,35.49ZM179.71,24a6.17,6.17,0,0,1,3.46,1.15c.57.58.57,2.3.57,2.3,0,.58-3.45-2.88-3.45-2.88Z" style="fill:#3f4040"/><path d="M175.1,33.76c-.57,4.61,4,9.79,9.8,8.64l-.58-.58C182,37.79,179.14,36.06,175.1,33.76Zm8.64,2.88c-8.06-4-2.88-2.88,1.73-7.49-2.3,3.46-7.49,4-4,5.76C182,35.49,183.17,36.06,183.74,36.64Z" style="fill:#d7b690"/></svg>