<svg xmlns="http://www.w3.org/2000/svg" width="32" height="32"><g fill="#464c63"><path d="M-294.73 693.914h1.587v.397h-1.587v-.397z" style="line-height:normal;text-indent:0;text-align:start;text-decoration-line:none;text-decoration-style:solid;text-decoration-color:#000;text-transform:none;block-progression:tb;white-space:normal;isolation:auto;mix-blend-mode:normal;solid-color:#000;solid-opacity:1" fill="#4b5268" color="#000" enable-background="accumulate" font-family="sans-serif" font-weight="400" overflow="visible" transform="translate(1120.94 -2619.917) scale(3.77953)"/><path style="line-height:normal;text-indent:0;text-align:start;text-decoration-line:none;text-decoration-style:solid;text-decoration-color:#000;text-transform:none;block-progression:tb;white-space:normal;isolation:auto;mix-blend-mode:normal;solid-color:#000;solid-opacity:1" fill="#d4dff3" d="M-294.57 694.574v.046c-.01.396-.213.775-.39 1.152-.176.377-.327.746-.294 1.096V696.957h2.64v-.076c-.005-.367-.165-.743-.334-1.119-.168-.376-.349-.752-.349-1.145v-.043h-1.274zm.361.27a.132.132 0 0 1 .139.154c-.047.29-.105.576-.284.844a.133.133 0 1 1-.22-.148c.145-.218.197-.456.242-.737a.132.132 0 0 1 .123-.113zm-.459 1.19a.132.132 0 0 1 .132.132.132.132 0 0 1-.132.133.132.132 0 0 1-.132-.133.132.132 0 0 1 .132-.132z" color="#000" enable-background="accumulate" font-family="sans-serif" font-weight="400" overflow="visible" transform="translate(1120.94 -2619.917) scale(3.77953)"/><path d="M-295.254 697.22v1.852h2.061c.006-.024.01-.05.017-.074.02-.072.046-.152.07-.23l.02-.064c.027-.081.056-.162.09-.243.088-.211.206-.409.383-.544l.004-.004c-.003 0-.003.003-.004.003V697.22h-2.64zm1.318.397s.397.512.397.706c0 .195-.178.353-.397.353-.22 0-.397-.158-.397-.353 0-.194.397-.706.397-.706z" style="line-height:normal;text-indent:0;text-align:start;text-decoration-line:none;text-decoration-style:solid;text-decoration-color:#000;text-transform:none;block-progression:tb;white-space:normal;isolation:auto;mix-blend-mode:normal;solid-color:#000;solid-opacity:1" fill="#4edff3" color="#000" enable-background="accumulate" font-family="sans-serif" font-weight="400" overflow="visible" transform="translate(1120.94 -2619.917) scale(3.77953)"/><path d="M-292.205 698.023a.297.297 0 0 0-.11.018.564.564 0 0 0-.167.11c-.007.008-.015.013-.023.02-.195.199-.327.588-.42.919v.004l-.01.047a2.16 2.16 0 0 0-.045.202c-.005.028-.005.055-.009.083a1.703 1.703 0 0 0-.016.19 1.33 1.33 0 0 0 .041.368.93.93 0 0 0 .04.113c.034.083.079.166.13.246l.016.026c.17.254.413.471.677.543.066.018.208.005.348-.033.14-.038.28-.093.371-.133a.38.38 0 0 1 .319 0c.09.04.23.095.37.133.14.038.282.051.348.033.356-.096.673-.455.825-.815.126-.299.09-.685-.006-1.027a3.524 3.524 0 0 0-.225-.629c-.097-.19-.219-.333-.383-.4-.108-.045-.38-.003-.609.08-.072.026-.126.052-.186.078 0 .042 0 .087-.003.127-.005.127-.009.161-.013.228a.133.133 0 0 1 .134.225s-.046.039-.108.076c-.06.038-.132.086-.24.086-.108 0-.177-.048-.238-.086-.061-.037-.108-.076-.108-.076a.132.132 0 0 1 .08-.236.132.132 0 0 1 .017 0c.004-.058.009-.105.013-.236v-.057a3.132 3.132 0 0 0-.309-.13 1.562 1.562 0 0 0-.502-.098z" style="line-height:normal;text-indent:0;text-align:start;text-decoration-line:none;text-decoration-style:solid;text-decoration-color:#000;text-transform:none;block-progression:tb;white-space:normal;isolation:auto;mix-blend-mode:normal;solid-color:#000;solid-opacity:1" fill="#ed4e4b" color="#000" enable-background="accumulate" font-family="sans-serif" font-weight="400" overflow="visible" transform="translate(1120.94 -2619.917) scale(3.77953)"/><path d="M-295.254 699.338h2.006c-.013.084-.02.17-.022.257-.001.046-.002.093 0 .14l.008.08a1.658 1.658 0 0 0 .035.204c.016.066.035.131.061.194.018.042.038.08.06.12l.007.015c.066.127.15.25.247.363-.102.107-.216.215-.312.215h-1.54a.446.446 0 0 1-.19-.088 1.057 1.057 0 0 1-.216-.209.768.768 0 0 1-.144-.442v-.85z" style="line-height:normal;text-indent:0;text-align:start;text-decoration-line:none;text-decoration-style:solid;text-decoration-color:#000;text-transform:none;block-progression:tb;white-space:normal;isolation:auto;mix-blend-mode:normal;solid-color:#000;solid-opacity:1" fill="#d4dff3" color="#000" enable-background="accumulate" font-family="sans-serif" font-weight="400" overflow="visible" transform="translate(1120.94 -2619.917) scale(3.77953)"/><path style="line-height:normal;text-indent:0;text-align:start;text-decoration-line:none;text-decoration-style:solid;text-decoration-color:#000;text-transform:none;block-progression:tb;white-space:normal;isolation:auto;mix-blend-mode:normal;solid-color:#000;solid-opacity:1" fill="#d3743e" fill-rule="evenodd" d="M-291.443 696.957a.132.132 0 0 0-.098.19s.048.102.102.23c.053.128.109.286.125.371.024.134.026.37.019.564-.007.195-.021.35-.021.35a.132.132 0 0 0 .263.024s.016-.162.024-.364a3.149 3.149 0 0 0-.026-.623 2.312 2.312 0 0 0-.14-.424c-.056-.134-.108-.242-.108-.242a.132.132 0 0 0-.14-.076z" color="#000" enable-background="accumulate" font-family="sans-serif" font-weight="400" overflow="visible" transform="translate(1120.94 -2619.917) scale(3.77953)"/><path fill="#46b73c" fill-rule="evenodd" d="M-290.936 697.552s.079-.43.235-.566c.212-.184.824-.227.824-.227s-.142.53-.353.68c-.192.136-.706.113-.706.113z" transform="translate(1120.94 -2619.917) scale(3.77953)"/></g></svg>