<svg xmlns="http://www.w3.org/2000/svg" viewBox="0 0 1079 824.8"><defs><style>.cls-1{fill:#9f5ccd}.cls-7{fill:#af66cd}.cls-8{fill:#995ccf}.cls-9{fill:#9766d8}.cls-10{fill:#a95fc8}.cls-12{fill:#ae66cc}.cls-14{fill:#ab63c9}.cls-19{fill:#a35ccc}.cls-21{fill:#a15dcb}.cls-22{fill:#9e5ecc}.cls-28{fill:#9d5ecc}.cls-33{fill:#ac66cc}.cls-34{fill:#af67cf}.cls-36{fill:#aa63ca}.cls-37{fill:#a75fc9}.cls-38{fill:#ac64ca}.cls-39{fill:#a461cb}.cls-40{fill:#a864cb}.cls-41{fill:#a160cb}.cls-42{fill:#aa64cb}.cls-43{fill:#a562cb}.cls-44{fill:#ab65cc}.cls-45{fill:#a25fcb}.cls-46{fill:#a55fca}</style></defs><g id="Capa_2" data-name="Capa 2"><g id="Capa_1-2" data-name="Capa 1"><g id="SIcBFs"><path d="M1079 343v126c-2 2-4 2-6 2h-48c-4 1-5-3-6-5a101 101 0 0 0-15-23 89 89 0 0 0-39-27c-32-11-62-5-89 15l-11 10c-6 5-6 5-12 0l-28-26a131 131 0 0 0-54-26c-26-6-52-3-76 8l-15 9-6 2H463c-3 0-7 1-9-3-1-4 3-5 4-8l14-14-20 22a10 10 0 0 1-3 2c-2 2-5 2-7 0s-2-6 0-8l13-13a16 16 0 0 0 5-7l-4 2c-5 8-12 15-18 21-4 4-8 7-14 5-2-1-4 1-7 1-2 1-5 0-6-2s-1-5 1-6l3-3c6-6 12-11 17-18l-21 21a20 20 0 0 1-4 4c-2 1-4 2-6 1s-2-4-2-6l1-2 17-17c2-3 5-6 5-11 3-4 6-9 11-12l2-1c-1-7 6-9 9-13 3-3 8-4 12-3 6 2 16-3 18-9l8-13a2 2 0 0 1 1-1c6-1 12-6 19-3 3 0 5 0 6-2s3-4 5-5c10-1 13-9 16-17l5-10c1-3 3-4 6-3 2 2 3 5 1 7-5 5-4 12-8 17-1 2 1 3 2 3a23 23 0 0 0 6 1h486c3 0 7 0 9-3 4-2 6 0 8 2l31 32 4 7Z" class="cls-1"/><path d="M196 825H1V430c1-2 3-1 5 0l5 4c5 6 12 9 17 14l7 7 7 7a15 15 0 0 1 5 5l11 11 3 3 34 33a36 36 0 0 1 4 5c21 19 40 39 60 59l50 49c1 3 4 6 7 8 7 5 13 12 19 18 1 1 3 3 2 5l-5 16c-8 19-9 40-1 60a85 85 0 0 0 24 36c2 2 5 4 6 8-1 5-4 10-10 9-12 0-24 3-36 2-13 0-25 2-38 1l42 1 21 2c4 0 5 3 3 6-4 6-8 10-15 8-8-2-15 1-20 7a39 39 0 0 1-12 11Z" style="fill:#9b68d8"/><path d="m1079 343-30-30-10-11a10 10 0 0 1-6-3l-64-66-15-16-35-36c-8-9-18-17-26-27l-22-23-58-60-37-38-26-28c-2-1-3-2-2-5h327c3 0 4 1 4 4v339Z" style="fill:#ba76d7"/><path d="m748 0 19 21 43 44 58 59 5 6c1 7-3 14-6 20-14 31-38 52-69 63-32 11-63 9-93-5a112 112 0 0 1-41-32c-6-8-13-14-20-21a118 118 0 0 1-8-9c-3-1-4-4-7-7a10 10 0 0 0-1-1c-31-28-59-58-89-87l-5-5c-4-4-6-10-12-11l-6-7c-4-2-5-6-9-8a13 13 0 0 0-2-2L493 5c-1-1-3-2-2-5Z" style="fill:#b971d4"/><path d="M903 825H405a28 28 0 0 1-10-7c-9-9-18-19-28-27a53 53 0 0 1-6-7 4 4 0 0 1-1-5c3-5 9-8 14-11a30 30 0 0 0 14-10 94 94 0 0 0 11-19c2-5 5-7 10-7h389a106 106 0 0 1 12 1c3-1 5 0 6 2l18 17a132 132 0 0 0 14 14l11 11 42 42c2 1 4 3 2 6Z" style="fill:#925bd1"/><path d="m903 825-15-16-41-42h5c3 3 5 2 8-1l36-37c6-6 14-10 20-17l5-6a11 11 0 0 1 10-6c9 0 17-3 26-2l6-3a45 45 0 0 1 10-9 11 11 0 0 0 4-3c13-16 28-29 43-44a12 12 0 0 1 10-4l20-2 5 2 17 18a27 27 0 0 1 7 9v38c-2 5-7 4-11 5-4 0-7 3-10 6-6 6-11 12-18 17a23 23 0 0 0-4 3l-49 49-1 1c-3 8-11 12-17 16-6 5-13 7-20 5 6 1 6 1 6 8 0 2 0 3 2 3 4 1 7 2 11 1 5-2 9-1 13 0 5 2 6 7 2 11Z" style="fill:#9866d7"/><path d="M52 0h156a61 61 0 0 1 6 6c3 3 3 6 1 8-4 2-5-1-6-2l11 14c4 5 6 10 9 16a5 5 0 0 1-1 5c-2 1-3 3-1 6l7 19c1 3 0 5-3 7-3 1-5-1-6-4l-6-18-3-4c3 7 6 13 7 20 1 4-1 7-4 8s-3 3-3 5c2 7 1 14 1 20 0 2-1 5-2 4-4 0-6 6-11 5-2 0-3 3-3 5a60 60 0 0 1-10 22c-2 3-4 5-7 5a19 19 0 0 0-12 3h-5c-4-3-6-3-10 0-11 7-23 12-37 11-12 0-24-2-34-10l-5-2c-2-2-3-2-4 2-1 3-3 3-5 1-4-3-8-6-14-7-5-1-7-7-9-12s-5-9-4-15a4 4 0 0 0-4-5c-6 0-9-3-9-11a105 105 0 0 1 1-14c0-4 1-7-1-11-2-2 0-5 0-7 2-5 3-9 7-13l2-4c1-2 1-3-1-5-5-2-5-5-1-9 6-8 13-15 21-22l-15-1c-2-1-5 0-6-3s1-5 3-6l10-7Z" class="cls-7"/><path d="m1079 662-25-24-4-4c-4-1-6-3-9-5l-47-47c-1-2-3-4-2-6a13 13 0 0 1 4-5 92 92 0 0 0 27-95c-1-2-2-4 0-6l7-1h49Z" class="cls-8"/><path d="M983 825c1-8-3-12-12-9-8 2-14-1-22-3 2-2 6-4 4-7-2-4-6-3-10-4l7-1c8 0 15-2 21-8 1-2 3-4 6-3 2 1 2-1 2-2 1-4 3-6 6-9l47-47c9-8 19-16 27-26l6-3a74 74 0 0 0 14-3v121c0 3-1 4-3 4h-93Z" class="cls-9"/><path d="m491 0 16 16c-1 9 3 17 3 25-1 11 1 23 2 34 0 4-2 8-4 11-4 1-4-3-5-5-3-7-2-15-3-23a33 33 0 0 0 0-4l1 22c1 3-1 4-3 5-7 2-7 2-7 9l-1 17c0 2 0 5-3 5s-5-2-5-5V86c0-1 0-3-2-2s-1 1-1 2v20c0 5-2 7-5 7-4 0-6-3-6-7V86v16c0 10-4 14-14 13l-21 2h-1c-5-2-10 0-15 1-3 0-4 1-4 4a133 133 0 0 0-1 16c0 7-3 9-10 7a4 4 0 0 1-1-1c-3-5-2-10-3-16 1-3 6-4 4-9-1 3 0 7-4 7-2 0-2-1-2-3l1 12c0 3 1 6-3 7-3 0-5-3-5-7 1-3-1-5-1-8a50 50 0 0 1-1-14 12 12 0 0 0 2-4c1-6 3-7 8-3V87c0-8 1-9 9-10l2-2v-7c-3-6 0-11-3-17-2-2 1-4 3-5l10-2c3-1 4-2 4-5a58 58 0 0 0-4-18 5 5 0 0 1 4-7c3-1 5 1 6 3 4 8 4 16 6 23l-5-20c-1-4 0-7 5-8l18-2c4 0 6-1 6-5-1-2 1-3 3-5Z" class="cls-10"/><path d="M460 0v10c1 2 0 2-2 2l-21 2c-6 0-7 1-5 7l5 21-1 4c-2 1-3-1-3-2-3-5-3-11-4-17a24 24 0 0 0-3-9c-1-2-2-3-4-2s-2 3-1 4a50 50 0 0 0 2 7c1 3 2 5 1 8a4 4 0 0 0 0 3c2 4 1 7-4 8l-12 2c-1 1-4 1-1 3 2 1 2 2 2 4l2 20c0 3-1 5-5 4-6-1-7 1-7 7v21c0 1 1 4-2 4-3 1-2-2-3-4l-1-2c-2 2-1 6-3 8a50 50 0 0 0-14 4c-4 2-9-4-9-9a80 80 0 0 0-1-23l1 20a34 34 0 0 1 0 5 5 5 0 0 1-4 4 5 5 0 0 1-6-3 10 10 0 0 1-1-5V90a18 18 0 0 0-2-10c0-9-2-18-4-27-1-8-2-15-5-23l-3-9c-1-4 0-7 3-8s6 1 7 5l5 17-4-15c-2-6 0-10 7-10 4 0 4-2 3-4s-2-4 0-6h5c3 2 3 5 5 7-1-3-2-5 0-7Z" style="fill:#ab61c8"/><path d="M52 0c-1 5-6 6-9 9-1 1-3 2-2 3l3 2h19l3 1-1 2-10 8-16 17c-2 2-1 4 2 4 5 1 5 2 3 6-4 7-9 13-10 21v4c3 3 2 6 1 10v19c0 4 2 5 5 5 6 0 8 2 8 8-1 9 5 16 10 23l1 1c7-1 10 5 15 8a5 5 0 0 0 1 1c1-2-3-3-1-5s5-3 8-1l9 6c5 3 11 6 17 6l11 1c14 1 26-4 38-12 4-3 7-3 10 2a8 8 0 0 1 0 2l1 3c-1 3-3 4-5 6a74 74 0 0 1-55 12c-8-1-17-4-24-8s-13-9-19-15a46 46 0 0 0 18 15l12 6 3 1c2 1 3 3 2 5s-2 2-4 3c-6 1-12-3-17-6-11-5-19-13-27-23-1-2-4-3-6-3-6 1-9-2-11-6l-6-18 4 11c1 2 2 4 0 5s-4 0-6-2c-3-4-4-9-5-14-1-7-1-7-8-7a11 11 0 0 1-4-1c-3-2-5-1-6 4l-1 4c-1 1-2 2-2-1V0Z" class="cls-12"/><path d="M363 784c14 13 29 26 42 41H196c5-8 11-14 19-19 5-3 10-1 16-1 3 0 10-5 11-8 0-2-1-2-2-2-9 1-17-2-26-2a213 213 0 0 1-37-2l-6 1-3-1c0-2 2-2 3-2 6 0 12 1 19-1 10-2 21 0 31-1l30-2c4 0 7-2 8-7 2-2 3-1 4 0l7 4c12 8 25 10 39 12 15 1 30-2 44-7 3-2 6-5 10-3Z" style="fill:#9869d8"/><path d="M363 0c0 3 2 4 3 7 0 2 2 3 0 5-2 1-4 2-6 1s-4-1-5 1c-2 2-2 4-1 7 3 6 5 13 5 21-3-1-2-3-2-5l-6-17a7 7 0 0 0 0-2c-2-2-3-5-6-3s-2 3-1 5c6 14 8 29 10 44l2 16c-3 1-6 4-10 4-3-1-3 1-3 3v17a17 17 0 0 1-1 5 4 4 0 0 1-4 3c-2 0-3-2-3-4a188 188 0 0 0 0-19 166 166 0 0 1 0 20c0 4-2 6-6 5a16 16 0 0 0-9 1 4 4 0 0 1-3 1c-5-3-10 0-15 1-2 0-4 1-4 3 1 2-1 4-1 5s1 4-2 5-4-1-4-4l1-5c1-2 0-4-1-5a5 5 0 0 1 1-5 17 17 0 0 0 2-14V80c-1-2 1-4 4-4 2-1 2-2 2-4l-7-25-1-9c0-2 0-4 2-4 3-1 4 0 5 2a18 18 0 0 1 3 6c0-5-3-10-5-15l-4-7c-2-4 0-8 5-8l12-1c4 0 5-2 4-5-1-2-2-4 0-6Z" class="cls-14"/><path d="m314 0 2 6c2 5 0 8-4 7s-9 2-14 1c-4-1-5 2-3 5 4 7 8 15 10 23l-1 4a5 5 0 0 1-5 0c-2-1-1-3-1-4v-3c-1-1 0-4-3-4-2 1-1 3-1 5l1 6c-4 4-10 2-12-4-3-7-5-14-9-20l9 19c1 3-1 6-4 7s-3 3-2 6c2 6 2 12 5 18 1 3 0 6-3 6s-4-1-5-4l-5-21a9 9 0 0 0-1-2c-1-1-2-2-3-1l-1 2 4 16a15 15 0 0 1 1 7c-1 2-3 4-5 4a4 4 0 0 1-5-4l-4-20c-1-4-2-5-6-2-3 2-5 1-7-2-1 3 0 4 1 6 2 5 4 10 4 16 1 2 2 5-1 6-3 2-4 0-6-1a96 96 0 0 1-6-18 32 32 0 0 0-4-9c-1-1-3-3-3-5a8 8 0 0 0 0-5c-5-6-7-13-13-19-3-2-5-5-6-9 0-3-4-4-5-8l8 7c1 1 2 2 3 0 1-1 0-2-1-4-2-2-5-4-5-8Z" style="fill:#ad64ca"/><path d="M1 0v124c3 1 2 4 2 6v19a12 12 0 0 0 1 4c0 5-2 9-1 14 0 4 2 8 1 12v13l-1 29c0 4 2 7 1 11l-1 13v25c0 3 2 6 1 9l-1 22c0 14-2 28 1 42a14 14 0 0 1 0 3c-2 7 0 15 0 22v18c0 9-2 17 0 25l-1 13c0 2 0 4-2 6H0V4c0-1-1-3 1-4Z" style="fill:#ddc1ea"/><path d="M0 430a5 5 0 0 1 1 0v395c-2-1-1-3-1-4V667Z" style="fill:#c7a9e7"/><path d="m373 0 2 9v4c-2 1-3-1-3-2-2-4-4-7-4-11Z" class="cls-14"/><path d="M1023 470a92 92 0 0 1-31 106c-2 2-3 0-5-1l-13-14c-4-3-4-3-7 1-2 3-5 6-6 10l-6 4a21 21 0 0 1-5 1c-9 0-14 5-20 11-3 4-7 7-13 6h-9c-9-2-19 0-29-1-3-1-6 0-8 4-2 6-7 7-13 7-11 1-23-1-34-3h-8c-4 0-5 3-4 7 3 5 3 7-2 10a104 104 0 0 0-19 15c-2 3-4 3-7 3-10 0-19 3-28 3-3 0-5 3-8 5l-5 5c-3 3-5 6-2 10a3 3 0 0 1 0 2c-1 2-3 2-4 0-9-9-20-16-28-26l-40-41c-6-6-13-11-18-18-13-16-22-35-25-55l-2-15c-1-11 1-22 3-33 6-25 20-45 39-62a16 16 0 0 1 8-4c16-11 33-19 52-22a122 122 0 0 1 71 10 133 133 0 0 1 42 30l17 16c2 2 4 2 6 0 5-5 9-10 15-14 30-20 62-24 95-10 23 9 40 27 50 50l1 3Z" style="fill:#a067d5"/><path d="M637 145c10 10 20 19 29 30 20 24 46 38 77 42 28 3 54-3 77-17 25-15 42-37 50-64 1-2 1-5 3-6l24 26 70 72 53 54 19 20c0 5-4 5-7 5H532c-2 0-3-2-4-3l2-4 3-4c1-5 2-10 6-14 2-1 1-3-1-5a4 4 0 0 0-3 1c-2 2-4 3-7 0s-3-4-2-8l7-17-8 19a11 11 0 0 1-2 4c-2 2-4 3-7 2-2-2-3-5-2-7a118 118 0 0 1 6-15 35 35 0 0 0 3-9c-4 4-7 4-9-1h-4c-5 2-7-1-9-4s-3-3-5-2c-3 1-6 1-7-3a7 7 0 0 1 0-6c5-7 7-15 11-23 0-7 2-15-3-22v-5l2-10c0-2 1-4 5-4l1 1c1 7 5 7 11 6h26c6 0 7 0 7-6l2-17a8 8 0 0 1 4-7 6 6 0 0 1 6 0c2 1 3 2 3 5l-3 18 3-18c0-4 3-7 8-7 13 1 26-1 39 2h2c7-3 13-1 20 1h4Z" class="cls-19"/><path d="M674 407c-19 14-33 33-42 56-3 7-3 16-5 24l-1 19c-1 3-3 6-7 5-3-1-7-4-7-8-1-9-2-18 0-27a13 13 0 0 0 1-3l-1-3c-1-1-2 0-3 1-2 5-7 5-12 5H457l-29-1a5 5 0 0 1-3 0c-7-5-15-2-22-1l-7-2c-4 0-7-4-5-9a33 33 0 0 1 7-10c3-4 8-4 13-3s7-1 8-5c-7-4-12-4-18 3-1 2-4 1-5-2-1-2-2-3-4-3-8 0-16 0-22 7a3 3 0 0 1-4 0c-2-1-2-3-1-4 0-1 2-3 0-4-1-1-2 1-3 1a13 13 0 0 0-6 7h4c3 1 5 2 5 5a5 5 0 0 1-3 5c-5 3-11 4-16 4a5 5 0 0 1-5-2c-2-3-1-5 1-7l7-8c2-3 1-4-3-5-4 0-9 0-12 5a5 5 0 0 1-5 2c-4-1-3-4-4-6l1-7a96 96 0 0 1 14-18c4-4 8-5 14-4 6 0 12 0 17-5l10-4h2c4 1 7-1 10-4 2-3 5-6 9-4-2 2-1 4-1 7a13 13 0 0 0 8-4c6-7 14-13 19-21a8 8 0 0 1 5-3c1-1 3-2 4 0 1 1 0 3-2 4l-20 20c-2 2-4 3-3 5s4 1 6 1c3-1 6-2 9-1 4 2 6-1 9-4 6-7 13-13 19-22 2-2 6-6 9-4s-2 5-3 8c-2 4-5 6-8 8-4 2-6 6-9 9-2 1-2 4-1 5 2 3 4 1 6 0 5-3 8-8 12-13a81 81 0 0 1 16-16c-3 6-5 12-10 15l-11 11c-1 2-1 3 2 4h207a29 29 0 0 1 9 1Z" style="fill:#9d5dcd"/><path d="M490 237c5 4 7-1 10-3 0 3 1 5 3 7 1 2 2 4 6 2s7 0 9 5l3-3c1-1 3-3 4-2 2 1 2 3 1 5l-4 9-6 14c-1 2-1 4 1 5 2 2 3-1 4-2 5-4 5-10 8-16l4-10c1-1 1-4 3-3 2 0 1 3 1 4l-6 15c-1 3-3 5-3 8s1 4 2 5 3 0 4-1c2-1 3-1 4 1-6 8-8 18-14 26v2c-7 3-14 7-20 12a2 2 0 0 1-1 0c-6-6-12 2-17 1l-3 2c-1 5-5 9-8 14-2 6-13 10-20 8a9 9 0 0 0-9 2c-2 2-4 6-8 7v4c1 2 1 3-1 3-7 1-9 8-14 12-1 3-3 6-6 6l-3-1h-9a6 6 0 0 1-5 0c-3-1-6-2-10 0a4 4 0 0 1-2 1c-2 0-5 0-7-3s1-4 3-6l17-17-21 21a9 9 0 0 1-5 3c-7 2-14 4-22 2-5-2-9 0-13 1-4 0-8-1-11-3-1-3 0-4 2-5l30-26c3-4 8-4 12-7a3 3 0 0 1 4 0c3 3 5 1 7-1 4-4 8-8 10-13s7-7 10-10a3 3 0 0 1 4 0v4c-2 6-6 10-10 15l-6 6a209 209 0 0 0 20-25c3-5 8-7 14-6 4 1 6-1 8-4l15-25a21 21 0 0 1 12-9c2-1 2-2 2-3 0-4 1-5 5-6-3-2-2-6-1-8a10 10 0 0 1 6-7c4-1 7-4 11-6 2-2 4-3 6-1Z" class="cls-21"/><path d="M416 374a9 9 0 0 0 7-4c1 4-1 7-3 9l-18 18-7 5c-4 3-7 5-12 5-1-3 1-3 2-4a9 9 0 0 0-3 4c-7 2-12 8-20 9h-7c-7-1-12 1-15 6l-12 14c-2 4-5 5-8 5l-14-1a2 2 0 0 0-1 0c-6 3-13 2-19 2a36 36 0 0 0-13 3l-36 14c-12 4-26 6-38 9a218 218 0 0 1-55 5h-35c-14 0-29 1-43-1-7-1-14-1-21-4a16 16 0 0 1-4-5c-1-4 0-6 4-5 11 3 22 4 33 5 18 3 36 3 54 3 12 0 23-2 35-3a249 249 0 0 0 43-8c14-3 27-6 37-10l-52 14c-14 3-29 4-44 6l-51 1a118 118 0 0 1-15-2c-12-1-24-2-36-5l-15-2-24-22c2-2 5-1 8 0s7 3 10-1a3 3 0 0 1 3-1c6 4 13 2 20 3 11 2 23 1 35 2a584 584 0 0 0 118-3h5c5 3 9 2 13 1l20-7 26-10 9-4c2-1 5-1 6 1 1 3 0 4-2 5-9 5-18 10-27 12a20 20 0 0 0-5 2c6 0 11-3 16-5 10-4 19-10 30-13a76 76 0 0 0 17-8 22 22 0 0 1 7-3c2 0 4 0 5 2 2 3 5 2 7 0l4-3c2-1 5-2 7-1 4 2 7 2 10 0 8-3 14-7 20-13l18-15c2-2 5-2 7 0s1 5-1 7a74 74 0 0 1-11 10c-4 2-8 4-10 9 4-3 8-5 10-9l17-16a10 10 0 0 1 11-2 5 5 0 0 0 3-1Z" class="cls-22"/><path d="M730 371a15 15 0 1 1-29 0c0-8 6-14 14-14s15 6 15 14Z" style="fill:#d7ace8"/><path d="m401 472 14-3a6 6 0 0 1 6 1c4 3 8 3 12 3 54 2 108 0 162 1 6 0 11 0 14-6 1-2 3-6 6-4 2 1 1 4 0 7-2 10-2 20-1 30 0 7 5 9 12 5 2 10 2 20 6 29 7 22 20 40 37 56l42 43c-1 2-3 3-5 3a72 72 0 0 1-7 0H388a37 37 0 0 1-25-9 15 15 0 0 0-6-3c-13-4-27-9-41-9a64 64 0 0 0-20 3c-9 2-18 2-26 7a12 12 0 0 0-1 1c-10 9-22 11-35 10-10 0-20 0-27-9l-2-2-104-103-3-3a4 4 0 0 1 4-4h25c6 1 12-1 18 1h3c6 4 12 2 17 1 7-2 13-1 19-1 17-1 34-3 51-8a104 104 0 0 1 37-6h21c8-1 16 0 23-4 12-7 25-11 37-20 6-4 12-5 19-4 4 0 6 0 9-3s6-4 10-2c3 2 7 2 10 2Z" class="cls-8"/><path d="M207 628a6 6 0 0 1 5 2c3 4 7 5 12 5h23a20 20 0 0 0 12-4c24-16 51-20 80-14l19 5c5 2 8 6 12 9a34 34 0 0 0 17 4h316l8-1 25 24 4 4c3-1 4 1 5 2l64 64c2 1 4 3 2 6l-7 1-392-1c-7 0-10 2-12 8-3 7-7 13-11 18s-8 9-14 11c-6 1-10 5-14 10-3 1-5-2-7-3l-39-39-74-74c-2-2-5-4-5-7l-24-25-5-5Z" style="fill:#955dd1"/><path d="M401 472c-3 2-7 1-10 0-4-1-8-1-10 3-1 3-4 3-6 2-8-1-16 0-23 5-9 7-20 11-29 16-11 6-22 6-33 8-10 0-20-2-30 0a75 75 0 0 0-13 2c-21 6-42 11-64 11-8 1-18-2-26 3a4 4 0 0 1-4 0c-8-5-16-3-24-3h-25a10 10 0 0 0-6 1c-13-13-26-24-38-38 0-3 3-3 5-2l28 3 28 1 30-2a421 421 0 0 0 143-38l9-3c1-1 3-1 4 1a4 4 0 0 1-1 4 12 12 0 0 1-4 3c-15 7-30 15-46 20a20 20 0 0 0-2 1c8-2 15-6 22-9l17-7c6-2 11-5 16-9a6 6 0 0 1 5-2c4 1 8-2 12 0 3 6 4 6 8 1s13-6 18-3c2 1 2 3 1 4-2 3-4 7-7 9a12 12 0 0 0-3 3c-1 1-2 3-1 4a3 3 0 0 0 4 1l15-4c1 0 3-1 2-3s-2-3-3-3a20 20 0 0 0-10 2c5-5 6-12 13-14 2-1 3-2 5-1s1 4 0 5l-2 4 2 1c8-10 19-8 30-8 4 1 0 4 0 6 2 0 4-2 5-4 5-4 7-5 13-1 2 1 3 0 5-1l3 1c1 1 0 2-1 3a20 20 0 0 1-14 7c-7 0-15 6-16 13-1 3 0 5 4 6l4 1Z" style="fill:#9c5dcc"/><path d="M413 376c-5-1-8 1-11 5l-22 20c-2 3-5 3-8 5-1 0-2 1-3-1l1-2a45 45 0 0 1 15-14 29 29 0 0 0 10-8c1-1 2-3 1-4a3 3 0 0 0-4 0l-7 6a235 235 0 0 1-20 17c-5 4-10 6-15 8a8 8 0 0 1-7-1c-4-2-6-1-9 2l-8 5c-3 1-4 0-4-3s0-4-3-3a27 27 0 0 0-4 2c-19 10-38 17-57 26-5 2-10 2-15 0 13-7 27-10 39-18-1-2-2-1-3-1-13 5-26 11-40 15l-20 7a12 12 0 0 1-10-1c-4-3-8-1-12 0-15 2-30 1-44 2-18 2-36 1-54 1l-54-3a20 20 0 0 0-7 0c-3 0-5 1-6-2-1-1-3-3-3 1 0 3-4 2-6 2l-13-4-9-5v-19l1-6c1-5 2-6 7-5a8 8 0 0 1 2 1c8 5 18 5 28 4a129 129 0 0 1 21 0l30 3a178 178 0 0 0 33 2l27-2a132 132 0 0 1 14-1c11 0 21-3 32-3l10 1c10 1 19-2 28-5a265 265 0 0 0 48-23l10-3a3 3 0 0 1 1 0c3 4 1 5-2 7l-37 19-7 3c22-7 41-20 62-30 6-2 12 0 18-1l2 1a43 43 0 0 0 20 0 7 7 0 0 1 4 0c12 3 22 1 31-8l17-18c1-1 3-3 6-3l-5 8c-7 5-11 13-18 17a3 3 0 0 0-1 4l3 1a8 8 0 0 0 3 0c5-2 8-4 13-1 3 2 8-1 11 1a1 1 0 0 1 0 2Z" style="fill:#9f5fcc"/><path d="m236 658 31 30 91 90 3 3 2 3c-12 7-25 11-39 12a104 104 0 0 1-47-7c-5-2-10-6-14-9l-4-2-19-20c-7-12-13-25-16-39-3-22 2-42 12-61Z" style="fill:#9965d7"/><path d="M326 443c-3 3-7 3-11 3-3-1-5 1-7 2-18 11-37 19-58 24-1 0-3 2-3 0s2-2 3-3c16-5 31-12 46-19a87 87 0 0 0 8-5l2-2c-1-2-2-1-3 0a446 446 0 0 1-106 35 363 363 0 0 1-61 7l-28 1c-15 0-29-3-44-4h-4a127 127 0 0 1-15-14h12a141 141 0 0 0 30 3h47c18-1 37 1 55-3l34-8c17-4 33-11 49-17 7-3 14-5 21-3a6 6 0 0 0 3 0c8-3 17-2 25-2a15 15 0 0 0 7-2Z" class="cls-28"/><path d="M119 761c-4 1-6-2-6-6l-2-21c0-3 1-5 5-5l23-2c3 0 4 1 4 4l3 24c0 2-1 3-3 3l-24 3Z" style="fill:#fe94bd"/><path d="M34 457c1-2 2-2 4-2l51 8a287 287 0 0 0 51 0l26-2a610 610 0 0 0 86-20h7a136 136 0 0 1-27 11l-19 5-22 5c-6 0-12 0-17 3h-6c-20 4-40 1-59 2a119 119 0 0 1-23 0c-6-1-13-1-19-3l-18-3h-3c-4-2-5-1-5 2a30 30 0 0 1-7-6Z" class="cls-28"/><path d="M637 145c-2 3-3 3-7 2-5-1-10-5-15-1a2 2 0 0 1-3 1c-5-3-10-2-15-2l-22-1c-6-1-9 3-10 9l-3 19c0 2-1 3-3 3v-4l3-21c0-2-1-5-4-5a5 5 0 0 0-4 5l-2 21c0 5-2 6-7 6h-30a19 19 0 0 1-4 0c-2-1-4 3-6 0-2-2-1-5-1-8v-1c-1-2-2-5 0-7l4-1c4-1 6-5 10-6a2 2 0 0 0 1-3c-1-2-2-2-3-1-3 1-5 1-7-1-2-3-3-6-3-10v-31 31c0 2 1 5-2 7a3 3 0 0 1-3-1c-2-1-1-4-1-6-2-18-4-36-4-54 0-2 0-4 2-5 4-5 1-10 1-14-1-5 0-11-2-16 0-1 0-3 2-3l1 2a57 57 0 0 1 3 18 39 39 0 0 0 2 13l1 6c1 2 1 0 2 0-1-2 0-5 1-8a4 4 0 0 0 1-3l-3-23a13 13 0 0 1 1-6V34c-2-6-4-11-1-18l2 2c3 7 4 15 5 24 2-3 1-5 1-7-2-4-1-7 2-8a23 23 0 0 0 6 6 158 158 0 0 0 12 11l5 4 78 78 11 11a1 1 0 0 0 1 1 28 28 0 0 1 7 7Z" style="fill:#a75cc9"/><path d="M517 27a9 9 0 0 0 0 8l1 8a3 3 0 0 1-3 3c-2 0-3-1-3-3-1-8-4-16-4-25a45 45 0 0 1 9 9ZM535 44c-4-3-10-5-12-11 5 2 8 7 12 11Z" class="cls-10"/><path d="M630 138c0 1 0 2-1 1v-2Z" class="cls-19"/><path d="m811 734-4-5-62-63-5-4c-4-9-4-9 3-16 6-6 11-10 20-10l23-2a7 7 0 0 0 5-3 78 78 0 0 1 18-15c3-2 4-4 1-7-3-4 0-10 5-10a13 13 0 0 1 5 0l27 3h14c4-1 7-2 8-6 2-5 6-7 10-6a46 46 0 0 0 17 0 7 7 0 0 1 4 0c4 2 7 2 11 1a16 16 0 0 1 7 0c5 2 9-1 11-5 2-2 3-4 6-5a3 3 0 0 0 2-1c2-6 8-5 13-6 10 0 12-8 16-15 2-5 3-5 7-1l20 18 24 25 33 33-18 3a15 15 0 0 0-12 5c-12 12-25 23-36 36-6 8-15 12-21 20a6 6 0 0 1-6 2c-9-1-17 3-26 2a8 8 0 0 0-7 4c-4 6-10 9-13 16-21 13-35 33-52 49-3 2-4 2-7 0l-5-4c-11-8-19-18-29-27Z" style="fill:#9c66d7"/><path d="m947 777-2 8c0 3 1 6-3 8l-1 2c-1 4-1 9-4 12-3 2-8 0-12 0a1 1 0 0 1-1-1v-25c1-4 2-5 5-5h16a3 3 0 0 1 2 1Z" style="fill:#51a5f6"/><path d="M925 806v1c-2-1-1-3-1-5 0-10 0-9-10-9-8 1-16-2-24-2v-1l18-2a94 94 0 0 1 10 0c4 1 6-1 6-5v-5c0-2 1-3 3-3l16-1c2 0 4-1 4 3h-1l-19-1c-3 0-2 2-2 4v26ZM942 793l3-8c3 4 7 2 11 2h8c2 1 4 3 3 5 0 3-3 2-5 2l-20-1Z" class="cls-9"/><path d="M1 150v-26c2-2 1-5 1-7 0-5 5-7 9-5 2 1 3 2 6 1 3-2 5 0 6 3l3 14a17 17 0 0 0 6 9l-2-9-3-11v-3l2 2 7 18a39 39 0 0 0 3 7c1 1 2 3 4 2 8-2 11 3 15 8 8 11 19 17 31 23a6 6 0 0 0 2 0c3 0 7 2 7-1s-3-2-5-4c-6-3-13-5-19-9-5-3-8-9-13-13a2 2 0 0 1 0-3h4c4 5 10 8 15 12 7 6 16 9 25 11a74 74 0 0 0 30 0c12-2 23-7 32-15a2 2 0 0 1-1-2c1-2 3-2 5-3 3-3 6-6 11-4 3 1 6-2 7-4 5-7 8-14 9-23 1-4 3-6 7-5 3 0 4-2 4-4 0-1 0-3 2-4 1 2-2 5 2 5 3 0 2-3 2-5 0-7 0-14-2-20-1-4 0-6 4-6 3-1 5-2 4-5-2-7-3-15-8-21-1-1-2-3-1-5s4 0 5 2c4 6 8 12 9 20l2 6a2 2 0 0 0 3 1 3 3 0 0 0 1-3l-8-21c-3-6-3-6 3-7 5 2 6 6 7 9l7 22c2 5 4 10 3 16l1 15c-1 2 1 4 4 5 4 1 7 3 6 8s-1 7-6 9c-3 1-5 2-4 6v8l-2 3c3 1 4 2 3 5l-2 3-2 4a11 11 0 0 1-8 4 5 5 0 0 1-1-1 4 4 0 0 1-3-4c1-2 0-3-2-4-4-1-5 3-6 5-3 7-8 12-13 18-2 3-6 4-10 3-3-1-6 0-8 2l-20 13c-13 6-27 11-41 11a156 156 0 0 1-29 0c-7-1-13-5-20-7-11-3-20-10-30-17-2-2-5-3-8-2-6 3-10 0-14-5-4-6-9-12-12-19a17 17 0 0 0-4-5c2 8 8 13 11 20 1 2 2 5 0 6-3 2-4 0-6-2-6-6-10-14-13-21l-4-4Z" class="cls-33"/><path d="M165 77c1 3-1 6-1 10l1 12a22 22 0 0 1-1 11c-1 4-1 5 4 4 6 0 7 2 5 7-8 17-21 28-39 33a57 57 0 0 1-66-33c-2-5 0-7 5-7 4 1 4-1 4-4-4-10-2-19 2-29l2-3c6-4 7-12 10-19 1-2 2-4 5-3a9 9 0 0 0 7 0c7-4 15-3 21-8 3-1 5 0 7 3 1 1 2 3 4 3s3-3 3-5 3-3 4-2c3 3 9 3 10 9l2 2c8 4 11 10 11 19ZM171 149a11 11 0 0 1-4 4c-2 0-3 0-2-2l2-2h4Z" class="cls-34"/><path d="m44 63-1 1-1-1a6 6 0 0 1 1-1Z" class="cls-12"/><path d="M170 111h-1l1-1Z" class="cls-34"/><path d="M1 301v-22l1-10c-1-2-1-4 2-6 2-1 4 0 6 1 2 2 4 3 7 3a3 3 0 0 1 2 1c4 4 9 4 14 4a99 99 0 0 1 25 5 234 234 0 0 0 38 9c9 1 17 3 26 2l34-4c14-2 26-7 39-10l10-2c6 1 10-1 16-3l1-1c2-4 5-5 9-4 1 1 2-1 2-2 2-7 3-7 9-7 5 0 9-4 12-7 5-6 10-12 17-17l4-2c5 0 7-3 10-6 1-3 4-4 7-5a20 20 0 0 0 11-9c3-5 8-7 12-10l4-4a34 34 0 0 0 5-4c3-2 6-2 7 1 2 4 3 2 4 1 2-2 4-5 7-5l6 1c2 2 4 2 5-1v-6c0-5 2-6 6-4h4c1-3 3-3 6-3l8-2c1-1 2-2 1-4-4-6-2-13-2-20 0-3 2-5 5-5 3 1 6 2 6 6l1 12c0 2 0 4 2 6v5c0-3 2-5 3-8a9 9 0 0 1 2-2l1-3h-3c-4 2-5 2-6-2v-10a3 3 0 0 1 2-3c4-2 9-3 13-1h1c3 1 4 4 4 8 0 7 0 15 2 23 1 5 0 10-6 13a3 3 0 0 0-1 1c-3 5-8 7-13 10-3 1-5 3-5 7 1 4-2 8-5 9-7 3-9 10-12 15l-6 12-16 23c-3 4-6 8-11 10a3 3 0 0 1-2 0c-2-2-1-4 1-6l14-19a3 3 0 0 0 0-4c-6 10-12 19-19 27l-9 5h-6c-4-2-6 0-8 3-6 7-14 12-21 19-2 1-4 2-6 0s0-4 2-6l13-12c1-1 3-2 2-4-2-1-4-1-5 1l-7 6c-8 8-18 14-26 21l-6 3c-2 1-4 0-4-2-1-2 0-3 1-4l9-6 21-16a2 2 0 0 0 1-2c-3-1-5 0-6 1-8 6-17 10-24 17-6 5-13 7-20 11a9 9 0 0 1-6 2c-6-1-11 0-16 1l-13-1a24 24 0 0 0-13-1l-14 3a4 4 0 0 1-2 0c-6-2-13 0-19 0-11-2-22 0-33-2a21 21 0 0 0-10 1c-5 2-9 1-14 0-5 0-10 2-15 1-6 0-11-3-17-3s-11 2-17 2h-3c-7-2-15 0-22-2-5-1-10-3-14-8Z" style="fill:#a662ca"/><path d="M402 144a17 17 0 0 1-7 1c-4 0-7 2-6 7l1 8 2-2c2-1 5-3 6-1a5 5 0 0 1-1 7l-3 2c-1 2-3 3-5 3-3-2-4-4-4-7a56 56 0 0 0 1-11 5 5 0 0 0-5-5c-4 0-3 3-3 5v13l2 4c3 4 2 6-2 7s-7 5-11 2l-2 1c1 5-3 4-5 5-4 0-2-3-3-5-3 2-2 4-2 5 2 6-2 9-5 12a3 3 0 0 1-3 1c-2-1-1-2 0-3 1-2-1-3-3-3-3 0-5 2-7 4s-3 4-6 3c-2 0-6 0-2-3v-2h-2l-6 5c-3 1-5 1-6-1-2-2-3-2-4 0-5 3-8 8-14 9a3 3 0 0 0-2 2c-4 8-12 13-17 20-1 2-4 3-7 3-2 1-3 0-4-1s0-3 1-5l8-8 22-22a3 3 0 0 0 1-2l-13 2a2 2 0 0 0-2 1c-2 4-6 6-10 8a5 5 0 0 0-1 1c-6 7-15 10-21 16a18 18 0 0 1-9 4c-3 1-6-1-7-4a15 15 0 0 1 8-9c13-7 23-16 31-28l6-6c3-1 3-4 2-6l-4-22v-6c4-3 8 0 12-3 2-1 4-1 4-4 0-6 4-11 4-17l2-3 1-1c4 0 8-5 13-2l4 1c3-2 7-3 11-2 3 1 4-2 4-4a66 66 0 0 0-1-18l1-8a11 11 0 0 1 3 8v17c0 1-1 4 2 4 2-1 2-3 2-5l-1-22c0-4 1-5 5-3 2 0 4 1 5-1h6c2 2 3 5 2 9a118 118 0 0 0 0 18c0 2 1 5 4 5 3-1 2-3 2-6 0-8 1-16-1-23 0-2 0-4 2-4 2-1 2 1 3 2 3 5 2 11 2 16 0 4 1 8-1 12-1 3 2 4 4 5s4 1 5-1c4-3 8-2 12 0 0 6-2 12 2 18v5c0 2 0 4 2 4s1-2 1-4a77 77 0 0 1-1-15c0-2 0-4 3-4s1 3 1 4-1 3 0 5a2 2 0 0 1 1 2c3 5 2 10 3 16Z" class="cls-36"/><path d="M388 199c0-2 0-3 2-3 7-1 8-10 15-13 3-1 2-5 2-7-3-8-2-17-2-25l-2-7c5 1 7 0 7-5-1-7 0-13 1-20 0-3 2-5 5-4a2 2 0 0 1 1 0c4 2 6-4 9-2 3 1 6 3 10 0a2 2 0 0 1 2 0l2 1c7-3 16 0 23-3 2-1 2-2 2-4V86c-1-2 0-4 1-6a2 2 0 0 1 3 1c2 1 2 3 2 5-2 7-1 13-1 20 0 3 1 5 4 5s3-3 3-5l-1-20c0-3 0-7 4-7s4 3 5 6l-1 20 1 2c0 2 0 3 2 3l1-3V89c0-10 0-10 10-9l4 65c0 4-3 5-5 4a10 10 0 0 0-9 3l-2 1a6 6 0 0 1 3 7v18a2 2 0 0 0 0 1c2 2 3 4 3 7a24 24 0 0 1-6 9c-1 1-3 3-5 1s-2-4-1-5a16 16 0 0 0 2-12c-2 7-7 13-12 19a5 5 0 0 1-4 2l-10 1c-5 0-7-3-6-9-3 6-4 7-8 7-2 1-4 1-5-1s0-3 1-4l7-12c2-3 2-4-2-4h-18c2-2 7 0 12 0 4-1 7 3 5 7l-8 12c-2 2-5 2-8 2s-6-1-8 1a5 5 0 0 1-4 1c-4-1-8 0-12 2a6 6 0 0 1-4 0c-3-1-5 0-7 1-2 2-4 3-6 1s0-4 2-5l1-1ZM399 128l-1-2 1-8c1-2 1-4 3-3l3 3c0 7 0 10-6 10ZM507 86l-1 6c-2-4-1-8-1-12Z" class="cls-37"/><path d="m393 101-2-15c-1-1 0-2 1-3s2 2 2 3c0 5 1 10-1 15Z" class="cls-10"/><path d="M114 168a15 15 0 0 1 12 0c-4 3-8 0-12 0ZM109 168c-3 0-6 1-10-3 5-1 7 1 10 3ZM143 165v-1l5-2 1 1a6 6 0 0 1-6 2ZM87 159c3 1 4 1 6 4-3 0-4-1-6-4ZM80 156c3 0 4 1 5 3-2 0-3-1-5-3ZM156 159c1-2 2-3 5-3a6 6 0 0 1-5 3ZM140 166a11 11 0 0 1-1 1l-1-1v-1l2 1ZM165 151a3 3 0 0 0 2 2v1c-2-1-3-1-2-3Z" class="cls-7"/><path d="M301 116a471 471 0 0 0-7 26 6 6 0 0 0-6 1c-3 3-5 0-8 0-2 1-3 0-4-2a29 29 0 0 0-5-11c-2-3-1-7-2-10-4 5-2 11 3 14 3 1 5 6 4 8-1 3-5 4-8 2a40 40 0 0 0-10-4 13 13 0 0 0-11 3c-1 1-2 3-4 2 0-4 1-8-1-12s2-4 4-5c4-1 6-2 7-5 1-4 0-7-4-8-6 0-7-4-7-8 0-9 1-17-1-25a22 22 0 0 1 0-5c1 0 3 2 4 1 2-1 0-3 0-4 0-8-4-15-6-21-1-2-3-4 0-5a4 4 0 0 1 5 2c2 3 3 3 4 0 1-2 2-3 5-2s5 2 4 5c-1 5 3 9 3 14 0 2 2 5 1 8l3 2 3-3c0-5-2-8-3-12l-3-12c-1-3 1-4 3-4 4 0 7 3 8 10 2 6 5 13 5 19l1 2a2 2 0 0 0 2-4c-2-3-2-6-3-10l-3-12c-1-3 0-5 3-5 4 0 5-2 4-5l-10-21c-1-2-2-3-1-4l1-1c2 0 2 2 3 3 5 6 6 14 9 21 3 5 6 8 12 7 2 2 2 5 3 8 2 6 2 12 5 18 1 3 0 6-4 6-3 0-3 1-3 4l1 21c0 3-1 6-3 8-1 2-2 2-1 4s0 5-1 7c0 1-1 3 1 4l2 2 1-3 1-7c0-3 2-4 4-2Z" class="cls-38"/><path d="M293 126c-5-2-1-5-1-8-1-1 0-2 1-3 2 2 2 4 1 6a10 10 0 0 0-1 5Z" class="cls-36"/><path d="m294 28-1 4c-2 1-3-1-3-2l-6-12a2 2 0 0 1 1-3l4 1 5 12Z" class="cls-14"/><path d="M298 276c3 1 3 2 1 3l-18 16c-1 1-2 2-2 5 5-2 9-7 13-10l13-13c1-2 4-4 6-2 6 3 11-1 15-4l6 3h2c2-1 4-2 7-1s4 0 5-2c4-6 10-11 13-18 2-2 3-5 7-4 2 1 2 6-1 9l-8 11c-1 2-3 5-2 8l-2 6c2-3 3-7 6-9 5-3 7-3 8 2-1 4-4 6-6 9-5 7-8 14-15 20-3 3-6 5-10 6l-6 1a11 11 0 0 0-11 1c-4 4-9 7-12 12a8 8 0 0 1-5 5 17 17 0 0 0-7 4 97 97 0 0 1-12 7c-3 4-8 4-12 3-6-1-12 1-17 4l-20 9-26 10-28 7a24 24 0 0 1-9 1H80a75 75 0 0 1-25-2 348 348 0 0 1-44-14c-5-2-6-2-7 4 0 2 1 5-3 5v-22l1-24c0-5 0-5 5-4 7 2 13 7 20 9 15 5 29 11 45 11a31 31 0 0 0 3 1l-15-3c-13-3-25-6-36-13a37 37 0 0 0-15-4c-5-1-8-4-7-9 1-4 4-3 6-3a58 58 0 0 1 12 5c16 9 34 14 51 19 13 3 27 3 40 4 17 2 33 0 49-3 14-2 28-5 41-11l29-13h9c6 1 11 2 17-2a264 264 0 0 0 33-27c3-3 6-4 9-3Z" class="cls-39"/><path d="M237 220c4 3 10 2 14-2a15 15 0 0 1 5-4c9-4 14-13 23-16 3-7 8-8 14-7 3 0 5-3 8-3l3 1c1 1 0 2-1 3l-14 13-12 13a66 66 0 0 0-10 10c7 1 10-3 13-7l6-6 2-1c3-9 12-12 18-17a19 19 0 0 0 3-4c3-3 5-3 7 1 1 2 2 3 4 3l-8 7c-4 3-6 5-8 9s-7 6-10 7c-5 1-7 4-10 7a9 9 0 0 1-7 4c-5 1-8 5-12 8-6 7-12 14-20 19h-4c-1-1-2-2-4-1s-2 3-1 4c1 2 1 4-1 5s-4 2-6 1c-2-3-4-1-4 1 0 4-2 6-6 3-1-1-2 1-3 3 0 1-1 3-4 2-5-3-10-1-15 0l-28 8c-9 2-17 5-26 5-7-1-13 2-19 2a224 224 0 0 1-67-12c-8-3-16-5-25-5-3 1-7-2-10 0h-1c-2-6-10-3-13-8-1-1-3-2-4-1-2 1-2 3-1 5 1 3-1 6-2 9v-47l1-15c0-3 0-5 3-6s4-1 6 1c3 2 6 5 6 8a4 4 0 0 0 0 1c2 7 15 15 22 14a6 6 0 0 1 5 1c5 4 11 4 17 4 15 0 28 2 42 4a111 111 0 0 0 41-1c11-2 22-3 33-2a42 42 0 0 0 12-2c3-1 6-2 10 0 2 1 8-3 9-6 2-6 2-6 8-6a6 6 0 0 0 7-4v-3a138 138 0 0 0 11-12c2-1 4-1 6 1s1 3 0 5-4 3-3 6Z" class="cls-40"/><path d="M1 368c2-3 1-6 1-10 0-3 1-4 5-3l40 14c8 1 16 5 24 4h98c11 1 23-4 34-7a327 327 0 0 0 61-24l4-1c6 2 10 1 15-1l12-2a5 5 0 0 1 3 2c1 3-2 5-4 7-7 6-16 11-25 16a151 151 0 0 1-16 9c4 0 7-1 10-3l23-11c4-1 6-6 11-6l1-1c3-7 9-9 16-10a31 31 0 0 0 8-2c3-1 6-1 7 2 1 2 0 4-2 6-9 9-20 15-30 21-3 2-4 4-4 7-14 6-27 15-41 21l-33 11h-16c-9-1-18 1-27 1l-23 2-21 2h-24l-24-2-30-3a34 34 0 0 0-9 0c-12 1-24 2-36-4-3-2-5-2-6 3l-2 5Z" class="cls-41"/><path d="M237 220c-4-3 0-5 0-7 0-1 4-2 1-3a3 3 0 0 0-4 2c-1 4-4 6-7 7a2 2 0 0 0-2 2c2 7-5 7-8 9h-3l-2-1c-1 0-2 2-1 3a2 2 0 0 1 1 2c-2 3-13 7-15 6a7 7 0 0 0-5 0 63 63 0 0 1-25 3c-9-1-17 2-26 3a127 127 0 0 1-41 0c-12-2-24-4-37-3-5 0-11-3-17-2a2 2 0 0 1-2-1c-1-3-3-5-5-1h-3c-8-4-14-10-21-15l-2-2c3-4 0-5-2-7-1-1-2-4-4-2s-5 1-5 6 1 9-1 13v-54a127 127 0 0 0 1-16c3-4 5-4 7 0 3 8 10 14 15 20 8 10 19 17 29 24 4 3 11 3 16 6 8 6 18 9 28 10 11 2 21 3 32 2a142 142 0 0 0 34-7l3-1c5-7 14-6 21-10a41 41 0 0 0 9-5c7-6 14-11 20-18a94 94 0 0 0 10-18 7 7 0 0 1 7-4l8-3c2 0 1-2 2-4l1-2c0-1 2-2 1-3h-4l2-4c3-6 9-6 14-8a2 2 0 0 1 2 0c3 4 8 3 11 5 1 1 4 2 5-1 0-2-1-5-4-5s-4-2-5-4c-2-4-1-9 0-14 0-2 1-3 4-2 2 0 2 2 2 4-1 9 4 16 8 23l5 25c1 5 1 9-4 12-4 3-7 8-10 12-7 9-15 15-24 20-4 2-8 4-10 8Z" class="cls-42"/><path d="M298 276a10 10 0 0 0-9 4c-6 8-14 13-21 18-6 6-14 12-24 12l-1 2c0 2-1 2-3 2a2 2 0 0 1-2-2c0-6-3-3-5-2l-26 11c-10 5-21 8-32 10l-25 5c-15 1-31 4-47 1-7-1-16 0-23-2-16-4-31-8-46-14l-23-10a20 20 0 0 0-5-2c-1 0-3-1-2 3 1 6 3 5 7 4l10 3 21 10a132 132 0 0 0 23 6l17 3c1 0 2 0 1 1l-1 1c-10 1-20 1-29-2-16-5-32-9-46-18-1-1-2-2-4-1l-1 4c0 8 1 16-1 23v-45c6 2 11 6 17 6 11 0 22 4 32 0 4-2 8-1 12 0 7 3 14 4 22 2h5l35-1c9 1 18 2 27 1s19 1 29-2c5-2 11-1 16 1 6 2 12 0 18-1h5c4 1 8 0 12-2 14-7 27-18 40-27a17 17 0 0 1 8-3l4 2c1 1 0 3-1 4l-15 11-18 13c-1 1-2 1-1 2h2c5-1 10-5 14-8l26-22c2-2 5-2 8-1Z" class="cls-43"/><path d="M233 161c-4 2-6 6-8 11-3 8-9 15-15 21-9 7-17 15-28 18a22 22 0 0 1-6 1l-4 1c-2 5-6 5-10 7-13 5-28 6-42 7l-6-1a114 114 0 0 1-32-5 35 35 0 0 1-5-2c-7-3-13-8-21-9-3 0-6-3-9-5l-24-19-2-3c-2-4-4-8-9-10-2-1-2-3-3-5 0-5-3-7-7-7l-1-8v-3c2-3 4-1 5 1a185 185 0 0 0 11 20c1 2 3 4 7 5-2-4-3-9-7-11a4 4 0 0 1-1-2c-2-4-3-8-6-11a3 3 0 0 1 1-5c2-1 4 0 5 2 4 10 11 19 18 28 1 2 3 3 6 2 6-3 10-1 15 3 11 10 25 15 39 19 11 3 21 3 32 3a106 106 0 0 0 63-24c3-2 7-3 10-2 4 1 7 0 9-3 6-7 11-14 15-22 2-4 4-3 6 0a3 3 0 0 1 1 3c-2 3 1 4 3 5Z" class="cls-44"/><path d="M1 153c2 2 1 5 1 8a46 46 0 0 1-1 17Z" class="cls-33"/><path d="M293 375c-5-2-6-3-1-6l25-16 10-9a2 2 0 0 0 1-2 2 2 0 0 0-3-1c-7 3-15 1-22 6-1 1-3 3-2 5s-1 4-4 3l-5 1c-8 7-18 10-28 16-5 3-11 3-18 1 3-3 7-4 10-6a230 230 0 0 0 39-24 15 15 0 0 0 2-3c2-3 6-5 9-7l5-4c-5 3-9 9-16 11-4 2-8 4-12 0 7-4 12-11 19-13a4 4 0 0 0 2-2c3-5 8-9 13-13a14 14 0 0 1 14-3c4 2 7-1 11-3a34 34 0 0 0 3-3c3 1 4-1 5-3 5-4 9-9 10-16l6-8c2 0 5 1 7-1l4-1c6 1 11-1 17-1 5 0 6-5 9-9l10-18a4 4 0 0 1 6-2c2 1 3 3 3 6a12 12 0 0 1-2 4c-3 5-7 10-9 16l13-23c1-2 2-4 5-5 2-1 5-1 7 1 3 2 0 5 0 7 3-9 3-9 13-9l9-2c5-2 12-4 14-11l7-14a10 10 0 0 1 3-4h6a4 4 0 0 1 1 6c-3 5-3 10-5 13l8-19c1-2 3-4 6-4 2 0 3 1 4 3l-10 21-2 7c-4 1-7 4-10 6s-6 2-9 5-2 6-3 8c-1 1 1 1 1 1s2-2 3 0 0 3-2 3l-3 1c-2 1-3 2-2 4 2 4 1 5-3 5s-7 4-10 7c-5 8-11 16-15 25-4 6-6 7-13 6a10 10 0 0 0-9 4l-20 26c-2 2-4 6-6 3-2-1 0-4 2-6 6-6 13-12 16-21v-2c-4 5-9 8-12 13-3 6-8 12-14 16-2 1-5 3-5-2 1-3-1-2-3-1-14 7-24 20-36 29l-8 6c-6 3-13 0-20 2l-2 1c-3-4-6-1-9 0a8 8 0 0 1-4-1Z" class="cls-45"/><path d="M502 209c-6-2-6-2-8 3-4 7-6 15-10 21a18 18 0 0 1-2 3 2 2 0 0 1-3 0 2 2 0 0 1 0-2c4-6 4-13 8-19v-3a3 3 0 0 0-4 0 10 10 0 0 0-2 3l-6 13c-4 9-11 12-19 14a30 30 0 0 1-11 1c-6 0-7 5-9 9-1 1 0 5-3 4s1-3 1-5 4-5 0-7c-3-1-6 0-8 4l-13 23c-1 2-1 3-3 3a2 2 0 0 1-3-2l2-4c2-7 8-11 10-17 1-2 2-4-1-5s-3 1-4 3l-13 22c-1 3-4 4-7 4-6 1-12 3-18 1l-4 2-5 4c-1-2 1-5-1-6-1-2-3-3-5-1-2 3-4 4-4 7-1 4-4 4-7 5-1 1-2 0-2-2a21 21 0 0 1 3-4c1-2 2-4 1-6a2 2 0 0 1 0-2c4-5 5-11 10-14a10 10 0 0 0 3-8c-2 0-2 1-3 2-3 8-9 13-14 19-2 4-5 7-9 3l-5-1c10-10 17-21 25-33l11-20c1-3 3-5 6-7a9 9 0 0 0 6-9c0-4 2-6 6-6l-2 5c2 1 3 0 3-1 3-3 6-4 10-2 6-3 13-1 19-4 3-1 5-2 8-1 3 2 6 1 8-3l5-8c2-3 1-6-3-6a19 19 0 0 0-10 1l-7 1a3 3 0 0 1-3-3c0-2 2-1 3-1 5-2 10-1 15 0l13-2c1 0 3-1 3 1 1 1 0 2-1 4l-11 18c9 0 11-8 17-12 1 3-2 4-3 5v6c2 2 4 2 6 1l3-1c6 2 9-2 12-6a28 28 0 0 1 4-7c2-1 3-3 2-5s-1-3 1-4 3-2 4-1l1 5c1 6-1 11-4 16 4-1 5-4 7-6 2-3 1-5 0-9-3-5-2-12-1-18 0-4 0-6-3-8-2-1-3-3-2-4 2-2 2 0 3 1 2 1 2-1 3-2 2-3 4-4 7-2 3 1 5 0 7-2h2c3 0 4 3 6 4a6 6 0 0 0 5-1c1-2 3-2 5-1s3 5 1 7c-4 2-7 8-13 7a4 4 0 0 0-3 1l-1 6-2 1c-1 7-5 13-2 19 4 7 3 14 2 21Z" class="cls-46"/><path d="m951 298-30 4c-3 0-2-2-2-3l10-19c1-1 2-2 3 0l19 18Z" style="fill:#84d890"/><path d="M382 407c0-5 5-6 9-9-1 5-5 6-8 9ZM396 404l2-2v2a4 4 0 0 1-2 0Z" class="cls-1"/><path d="M515 255c-1 6-2 12-8 17 1-7 6-12 8-17Z" class="cls-19"/><path d="M369 362c1-4 3-5 6-8v1Z" class="cls-45"/><path d="m519 301 2-4 1 1c0 2-1 3-3 3ZM508 298c0 2 0 3-2 4h-1c0-2 1-3 3-4ZM525 292l-1-1a8 8 0 0 1 1-1 7 7 0 0 1 0 2Z" class="cls-19"/><path d="M413 376v-2h3a4 4 0 0 1-3 2Z" class="cls-1"/><path d="m528 282 1 1h-1v-1Z" class="cls-19"/><path d="M710 371a5 5 0 0 1 5-6c3 0 6 3 6 6-1 3-2 5-6 6-3 0-5-3-5-6Z" style="fill:#a05dce"/><path d="M526 641a30 30 0 0 0 3 12c3 5 9 4 13 5 3 1 3 2 1 3l-8 5a5 5 0 0 0-3 5v13c-8-9-16-11-25-5v-3c5-9 1-16-6-22 1-2 3-1 4-1l11-1 7-10c1 0 1-2 3-1Z" style="fill:#feeab4"/><path d="M516 652c-3 2-6 1-9 1-2 0-4-1-6 1-1-2 1-2 2-2h13ZM526 641l-3 1c0-1 1-3 3-1ZM543 661a2 2 0 0 0-1-3c3 1 3 1 1 3Z" class="cls-8"/><path d="M103 491c11 0 21 0 32 2h-32Z" class="cls-28"/><path d="m294 375 14-7c2 3-5 5 1 7l-25 14-24 13a35 35 0 0 1-18 3l-2-1 1-1c5-2 9-3 13-6 12-6 25-11 37-19l3-3Z" class="cls-41"/><path d="M288 413c-1 2-1 2-3 2 1-2 2-2 3-2ZM240 428l-1-1a4 4 0 0 1 1-1h1Z" class="cls-22"/><path d="M510 149c-3 1-5-1-6-4-1-15 0-31 2-47l1 14a101 101 0 0 1 1 12c0 8-1 17 2 25Z" class="cls-37"/><path d="M526 153a1 1 0 0 1-2-2l2-1a1 1 0 0 1 1 1 1 1 0 0 1-1 2Z" class="cls-19"/><path d="M506 162c0-1 1-2 2-1Z" class="cls-37"/><path d="m925 806-1-27c0-1 0-3 2-3 7 0 14-2 20 1h-15c-4 0-6 1-6 5v24Z" style="fill:#4babf9"/><path d="M233 161c-7 0-7-1-4-8 3 0 8 0 3 5-1 1 0 2 1 3ZM243 154c1 3 3 1 4 1-1 3-3 5-6 3a7 7 0 0 1 2-4Z" class="cls-38"/><path d="M88 196a10 10 0 0 1-6-3 8 8 0 0 1 6 3ZM161 192c-2 2-3 3-6 3l6-3ZM143 198l5-1c-2 2-3 2-5 1ZM94 198c2-2 3 0 4 0a3 3 0 0 1-4 0ZM139 199l-2 1-1-1a1 1 0 0 1 1 0 6 6 0 0 1 2 0ZM111 200l-1 1v-1h1Z" class="cls-44"/><path d="M332 274c-3 1-6 2-6-3l19-25a7 7 0 0 1 2-2c1-1 3-2 4-1s0 3 0 4l-17 23-2 4Z" class="cls-46"/><path d="M389 169c1-3 3-3 5-3-1 3-2 6-1 9 0 2 0 5-3 5-2 0-2-3-2-5l1-6Z" class="cls-37"/><path d="M108 299a85 85 0 0 1 25 0 62 62 0 0 1-25 0ZM72 294c6 1 13 0 20 4-7 0-14-1-20-4ZM160 296a18 18 0 0 1 9-4l2 1c1 1-1 1-2 2a19 19 0 0 1-9 1Z" class="cls-40"/><path d="M400 176c0 1 0 3-2 3s-2-2-2-4c0-1 0-3 2-3s2 3 2 4Z" class="cls-37"/><path d="M263 252c4-3 4-9 10-10l-10 10ZM95 298l1-1c2 0 5-1 7 1a1 1 0 0 1-1 1c-2 2-5 1-7-1ZM148 298c3-2 5-3 8-2-3 2-3 2-8 2ZM143 298a4 4 0 0 1-4 2 1 1 0 0 1-1-2 3 3 0 0 1 5 0ZM288 234c-1-2 0-4 2-5Z" class="cls-40"/><path d="M375 179a7 7 0 0 1 1 1l-1 1a4 4 0 0 1-1-1 13 13 0 0 1 1-1ZM289 139h-1v-1c0-1 0 0 0 0Z" class="cls-36"/><path d="M160 339a9 9 0 0 1 6-3c17-1 32-7 48-14a103 103 0 0 1 18-6l4 1c1 2-1 3-2 3-18 9-36 17-55 20a44 44 0 0 1-19-1Z" class="cls-43"/><path d="M360 284c2 1 4 3 1 6-4 4-7 10-12 14-2 2-3 3-4-1 6-3 8-9 11-14l4-5ZM338 301c-1 3-2 5-6 5l-1-1c0-2 4-6 5-6 2 0 2 1 2 2ZM342 293c1-1 1 0 1 1a3 3 0 0 1-2 2l-1-1a3 3 0 0 1 2-2Z" class="cls-46"/><path d="M90 340a3 3 0 0 1-1 0 1 1 0 0 1 0-1 1 1 0 0 1 1 0v1ZM145 340a2 2 0 0 1-1 0l-1-1h1l1 1Z" class="cls-43"/><path d="M295 340c4-5 10-7 14-11l6-5 2-1a2 2 0 0 1 0 3 29 29 0 0 1-5 4c-5 3-9 8-15 11Z" class="cls-39"/><path d="M263 151c0-1 0-3 2-3s2 1 2 2c2 4 3 9 3 14a2 2 0 0 1-1 2 1 1 0 0 1-2-1c-1-5-4-9-4-14Z" class="cls-38"/><path d="M121 232c1 1 5-1 5 2s-4 2-6 2l-1-1c-2 0-4 1-4-1s3-2 4-2a14 14 0 0 1 2 0Z" class="cls-44"/><path d="M33 233a5 5 0 0 1-5-3c3 0 3 0 5 3Z" class="cls-40"/><path d="M163 227c2-2 4-2 7-2-3 2-5 2-7 2Z" class="cls-44"/><path d="M201 238a5 5 0 0 1 4-3l-4 3Z" class="cls-40"/><path d="M175 223h-1a1 1 0 0 1 1-2 1 1 0 0 1 1 1l-1 1Z" class="cls-44"/><path d="M213 177c-3 10-37 34-46 33 7-7 17-9 24-15l22-18ZM53 198l15 7c6 3 11 7 18 7l2 2-3 1c-7-1-14-4-20-7l-8-5c-2-1-4-2-4-5Z" class="cls-42"/><path d="m225 164 1 2a25 25 0 0 1-6 9l-2 1a2 2 0 0 1-1-2l7-10a4 4 0 0 1 1 0Z" class="cls-33"/><path d="M53 199c-7-2-13-7-13-12a57 57 0 0 1 13 12Z" class="cls-42"/><path d="M334 323c6 2 11 1 15-5 0 7 3 11 10 13-7 2-10 6-10 13l-2-1c-2-4-6-6-10-4-2 0-4 0-3-2 4-5 3-9 0-14Z" style="fill:#f9eb80"/><path d="M444 260c0 4-3 8-6 11 1-4 3-8 6-11ZM367 301c0-4 1-5 3-6l1 1c0 2-2 3-4 5Z" class="cls-46"/><path d="m441 286-2 2-1-1a2 2 0 0 1 2-2l1 1ZM435 291l1 2a2 2 0 0 1-2 1h-1a3 3 0 0 1 2-3Z" class="cls-21"/><path d="M425 272a5 5 0 0 1-1 1l-1-1a3 3 0 0 1 1-2l1 2Z" class="cls-46"/><path d="M443 279a6 6 0 0 1 1-1v1a5 5 0 0 1-1 0Z" class="cls-21"/><path d="M375 288h1l-1 1v-1Z" class="cls-46"/></g></g></g></svg>