<svg xmlns="http://www.w3.org/2000/svg" viewBox="0 0 180.96 390.44"><g style="isolation:isolate"><g id="Layer_1" data-name="Layer 1"><path d="M70,88.37c-.48,2.91-1,5.88-1.56,8.77-3,16.14-8.21,32.53-10.88,38.18C49.68,151.9,24.77,174.19,24,174.87l0,0C23,185.31,12,194,4.44,194.34s2.07-8.49,3.42-14.05c.19-.76-6.91,3.43-7.78,1C-1.14,178,12,173.77,14.51,169.62c2.73-4.5,25.37-35.32,28-43.74C45.19,117,46.89,105.36,49.78,85c2.1-14.84,8.88-20.12,17.48-22.29C73.29,61.14,72.31,74.15,70,88.37Z" fill="#f9cbcb"/><path d="M70,88.37c-.48,2.91-1,5.88-1.56,8.77-3,16.14-8.21,32.53-10.88,38.18C49.68,151.9,24.77,174.19,24,174.87c14.77-13.73,37.58-44,35.15-62.89C54.8,78.1,62.27,71.43,62.27,71.43Z" fill="#f0b4b4"/><path d="M180.88,181.31c-.88,2.41-8-1.78-7.79-1,1.35,5.56,11,14.43,3.43,14.05s-18.54-9-19.54-19.45c0,0,0,0,0,0s-.95-.84-2.25-2.05c-6.44-6-24.77-23.71-31.3-37.5-2.68-5.65-7.87-22-10.89-38.18-1.08-5.77-2.13-11.81-2.76-17.2-1.23-10.49-.88-18.49,3.92-17.28,8.61,2.17,15.38,7.45,17.49,22.29,2.88,20.41,4.58,32.06,7.3,40.93,2.59,8.42,25.24,39.24,28,43.74C169,173.77,182.09,178,180.88,181.31Z" fill="#f9cbcb"/><path d="M154.72,172.82c-6.44-6-24.77-23.71-31.3-37.5-2.68-5.65-7.87-22-10.89-38.18-1.08-5.77-2.13-11.81-2.76-17.2,4.86-5.7,8.09-9.44,8.09-9.44s6.19,6.41,2,39.53c-.92,7.32,5.19,19.95,7.71,25.26C132.44,145.48,147.9,164,154.72,172.82Z" fill="#f0b4b4"/><path d="M78.23,361.47s4.4,21.14,1,25.68c-2.94,4-15.52,2.52-20.71-2.32-4.75-4.44,3-21.51,3-21.51a158.28,158.28,0,0,0,0-20.19c-1.53-27.21-8.38-37.28-3.91-71.6,2.81-44.61-15.39-90,7.86-125l35.8.49S83.3,233,83.82,272c.42,29.51-4.66,49.61-6,72C77.4,351.67,77.41,357.77,78.23,361.47Z" fill="#f9cbcb"/><path d="M101.38,147S97,188.25,93,223.7c-2.69,24.07-5.17,45.47-5.93,49.48-5,26.78-5.7,43.08-7.15,65.52,0,.46-.06.91-.09,1.37q-.07,1.23-.15,2.43c0,.52-.07,1.05-.09,1.56L77.86,344l-12.1-.62-1.79-.1-2.33-.11-1.92-.1c-.1-1.81-.21-3.6-.34-5.4-1.79-25.26-5.82-34.07-1.66-66.11a189.19,189.19,0,0,0-.1-23.21c-.09-1.45-.18-2.9-.28-4.34v0c-.11-1.45-.22-2.89-.34-4.33v0c-.12-1.44-.24-2.88-.38-4.32-.06-.73-.12-1.45-.19-2.17-.14-1.44-.27-2.88-.41-4.3l-.21-2.17-.42-4.27h0c-.21-2.14-.41-4.26-.6-6.38,0,0,0,0,0,0l-.36-4.22h0c-.1-1.4-.21-2.79-.31-4.19,0,0,0,0,0,0-.76-11.26-.9-22.19.75-32.6,0-.16,0-.32.08-.48.13-.81.27-1.63.43-2.44,0-.19.07-.39.12-.58q.51-2.59,1.21-5.15c.2-.76.42-1.52.65-2.27.1-.33.2-.66.31-1a65.82,65.82,0,0,1,7.91-16.51h0l4.46.06,2.09,0,15.23.21Z" fill="#47515e"/><path d="M87.08,273.18c-5,26.78-5.7,43.08-7.15,65.52,0,.46.11.92.13,1.37h-.22a3.76,3.76,0,0,1-1.7-.41,1.24,1.24,0,0,1-.65-1,.17.17,0,0,0,0-.07c-.33-2.44,3.86-47.1,4.38-61.6,4.87-11.44,10.19-71,10.19-71l1,17.75C90.32,247.77,87.84,269.17,87.08,273.18Z" fill="#353d47"/><g style="mix-blend-mode:multiply"><path d="M65.09,341.75c-.1-1.81-.21-3.61-.35-5.4-1.78-25.25-5.82-34.07-1.65-66.11,2.78-44-14.91-88.87,7-123.65h0l-4.46-.06c-23.25,35-5.05,80.39-7.86,125-4.17,32-.14,40.85,1.65,66.11.13,1.79.24,3.59.35,5.4l19.87,1c0-.51.06-1,.09-1.56Z" fill="#d1d3d4"/></g><path d="M65.77,343.35l-1.79-.1c-.3-5-.67-9.95-1.06-15.18-1.68-22.66-3.41-30.41.14-57.67,1-15.09-.54-30.44-2-45.29-2.77-28.55-5.39-55.55,9-78.52l2.09,0c-14.7,22.65-12.08,49.7-9.29,78.32,1.44,14.92,2.94,30.34,2,45.63-3.52,27.14-1.8,34.8-.13,57.36C65.09,333.25,65.46,338.3,65.77,343.35Z" fill="#fff"/><path d="M79.6,344.06l-1.76.13a64.47,64.47,0,0,1-16.18-.75c-.65-.11-1.3-.25-1.94-.4a7.08,7.08,0,0,1-.34-5.4l1.89.1,2.36.12,1.22.07.56,0,12.07.61.73,0,1.72.09c0,.46.11.92.13,1.37A8.87,8.87,0,0,1,79.6,344.06Z" fill="#fff"/><path d="M108.66,362.46s-4.41,21.13-1.07,25.68c3,4,15.52,2.52,20.71-2.32,4.76-4.44-3-21.51-3-21.51a156.31,156.31,0,0,1,0-20.18c1.54-27.21,8.41-37.29,4-71.61-2.79-44.61,9.67-89.73-13.56-124.71l-35.8.48S103.66,234,103.12,273c-.43,29.51,4.63,49.62,5.92,72C109.49,352.66,109.48,358.75,108.66,362.46Z" fill="#f9cbcb"/><path d="M99.85,274.16c5,26.79,5.68,43.08,7.12,65.52.12,1.86.23,3.66.33,5.36l19.87-1c.1-1.81.22-3.6.35-5.4,1.8-25.25,5.84-34.07,1.69-66.11-2.79-44.61,9.67-89.73-13.56-124.71l-4.46.06-2.09,0-29.25.39S98,264.24,99.85,274.16Z" fill="#47515e"/><g style="mix-blend-mode:multiply"><path d="M121.8,342.74c.11-1.81.22-3.61.36-5.4,1.8-25.25,5.84-34.07,1.69-66.11-2.76-44,9.2-88.57-12.69-123.36h0l4.46-.06c23.23,35,10.77,80.1,13.56,124.71,4.15,32,.11,40.86-1.69,66.11-.13,1.8-.25,3.59-.35,5.4l-19.87,1c0-.5-.06-1-.09-1.56Z" fill="#d1d3d4"/></g><path d="M121.13,344.34l1.79-.09c.3-5,.67-9.95,1.06-15.19,1.69-22.66,3.43-30.4-.1-57.67-.94-15.08.55-30.44,2-45.28,2.79-28.55-.34-55.26-14.69-78.24l-2.09,0c14.69,22.65,17.81,49.41,15,78-1.45,14.91-3,30.33-2,45.62,3.51,27.14,1.77,34.8.09,57.37C121.82,334.24,121.43,339.29,121.13,344.34Z" fill="#fff"/><path d="M107,339.68a10.68,10.68,0,0,0,.33,5.36,63.79,63.79,0,0,0,19.87-1,7,7,0,0,0,.35-5.4Z" fill="#fff"/><path d="M119.09,153.42c.66,1.22-7.53.66-27.78.63-20.44,0-29-2-28.31-3.16,3.86-8.7,3.32-19.66,2-31-2.15-18.7-6.44-38.34,3.54-50.15,16.63-4.93,31.09-3.14,48.25-.41a57.52,57.52,0,0,1,.46,34.16,60.63,60.63,0,0,0-1.52,6.75c-.75,4.35-1.11,8.74-1.68,13.27a53.07,53.07,0,0,0,1.28,20.54A43.53,43.53,0,0,0,119.09,153.42Z" fill="#f9cbcb"/><path d="M115.35,144.09l-4.53-.36s1.5-19.33-14-18.1S65,119.93,65,119.93L90,108.32l25.8,2c-.75,4.35-1.11,8.74-1.68,13.27A53.07,53.07,0,0,0,115.35,144.09Z" fill="#f0b4b4"/><path d="M89.85,157.84c-20.43,0-27.36-6-26.81-7.22a55,55,0,0,0,2.48-9.06c16.35,6.07,33.2,6.95,49.94.6.69,4.42,2.33,6.69,3.67,11C119.79,154.37,110.1,157.87,89.85,157.84Z" fill="#fff"/><path d="M103.78,61.63l.59.08c-.57,8.55-4.57,15.68-13.27,15.68s-14-7.08-14.47-15.71l.43-.06.56-.06c2.19-.25,4-.43,5-.53h.14l.37,0,.18,0h.19l14,0h.07c.4,0,3,.28,6.15.64Z" fill="#f44a91"/><path d="M119.4,91.5h0c-.36,3-.87,6-1.43,8.95-.67,3.58-1.43,7.11-2.08,10.53-.1.56-.21,1.11-.3,1.66s-.17,1-.26,1.45c-.33,1.94-.6,3.84-.79,5.68a93.57,93.57,0,0,1-50.08,0,54.92,54.92,0,0,0-.79-5.71c-.07-.46-.16-.94-.25-1.42-.66-3.6-1.5-7.77-2.18-12.2-2-12.82-2.65-27.84,6.16-37.8,0,0,5.72-.59,9.23-1,.67,20.29,27.53,21.36,27.74,0,3.29.37,6.48.45,9.57,1.12C120,71.55,120.58,81.52,119.4,91.5Z" fill="#f44a91"/><path d="M107.79,62.13c-.91,11.81-7,18.84-16.36,18.84-9.92,0-17-7.6-17.81-18.94l1.09-.14h.09c.59,8.95,5.94,17.9,16.63,17.9,12.4,0,14.76-12.19,15.19-17.8l.87.11Z" fill="#fff"/><path d="M77.56,116.05l-13.89-2a12.09,12.09,0,0,0-.25-1.42A153.26,153.26,0,0,1,60.19,91.5C64,101.8,62.16,112.73,77.56,116.05Z" fill="#d63376"/><path d="M119.4,91.51c-.36,3-.87,6-1.43,8.95-.67,3.58-1.43,7.11-2.08,10.53-.17.73-.32,1.32-.44,1.76a12.15,12.15,0,0,0-.26,1.42l-13.88,2C116.7,112.83,115.56,101.81,119.4,91.51Z" fill="#d63376"/><path d="M78.88,116.23a6.15,6.15,0,0,1-1.31-.18Z" fill="#f44a91"/><path d="M100.27,116.23l1.26-.18A5.24,5.24,0,0,1,100.27,116.23Z" fill="#f44a91"/><path d="M115.59,112.65c-.45,2.45-.82,4.83-1,7.13a93.57,93.57,0,0,1-50.08,0,68.18,68.18,0,0,0-1-7.13C79.66,118.27,97.08,118.12,115.59,112.65Z" fill="#fff"/><path d="M104.37,61.71c-.57,8.55-4.57,15.68-13.27,15.68s-14-7.08-14.47-15.71l.43-.06.56-.06c2.48-.29,4.14-.45,5-.53h.14l.37,0,.18,0h.19a92.77,92.77,0,0,1,14,0h.07c.35,0,2.1.13,6.15.64h.08Z" fill="#f9cbcb"/><path d="M99.65,64.35c-.41.52-.84,1-1.23,1.49-5.07,5.7-10.18,6-15.28-1.49l2-11.92.06-.35L85.83,48l10.86-.07,2.74,15.25Z" fill="#f9cbcb"/><path d="M99.43,63.14c-1.81-4.09-3.07-10.1-7.14-9.87a20.3,20.3,0,0,1-7.13-1.19L85.83,48l10.86-.07Z" fill="#f0b4b4"/><path d="M81,8.48a12.91,12.91,0,0,1,.45,4.2,10,10,0,0,1-.4,2.1,10.37,10.37,0,0,1-.85,2,13.9,13.9,0,0,1-2.69,3.32c-.26.24-.52.47-.8.7a7.13,7.13,0,0,0-.75.69A4.06,4.06,0,0,0,75,23.17a5.59,5.59,0,0,0-.09,2,11.83,11.83,0,0,0,.47,2c.41,1.33,1,2.62,1.48,3.93.25.66.49,1.32.69,2A10.61,10.61,0,0,1,78,35.19a4.88,4.88,0,0,1-.26,2.11A3.9,3.9,0,0,1,76.47,39a4,4,0,0,0,1.11-1.74,4.73,4.73,0,0,0,.14-2,16.31,16.31,0,0,0-1.24-4c-.54-1.29-1.13-2.57-1.57-3.92a11.19,11.19,0,0,1-.51-2.09A6,6,0,0,1,74.49,23a4.4,4.4,0,0,1,1.06-1.94,6.77,6.77,0,0,1,.8-.73c.27-.22.53-.45.79-.68a14.83,14.83,0,0,0,2.65-3.16,9.88,9.88,0,0,0,1.35-3.88,12,12,0,0,0,.08-2.08A18.61,18.61,0,0,0,81,8.48Z" fill="#0b2d50"/><path d="M111,33.82a15.41,15.41,0,0,1,2.81,2.78A26.28,26.28,0,0,1,116,39.88a24,24,0,0,1,1.7,3.59,18.37,18.37,0,0,1,1,3.87,13.62,13.62,0,0,1,.13,2,11.32,11.32,0,0,1-.2,2,13.2,13.2,0,0,1-1.47,3.77c-1.32,2.34-3.08,4.34-4.4,6.56-.33.56-.64,1.13-.91,1.71a14.37,14.37,0,0,0-.69,1.79,13.06,13.06,0,0,0-.56,3.78,18,18,0,0,0,.11,1.94c.07.64.16,1.28.28,1.93.24,1.28.53,2.56.78,3.86a20.46,20.46,0,0,1,.43,4,14.83,14.83,0,0,1-.15,2,16.37,16.37,0,0,1-.45,2A17.11,17.11,0,0,1,110,88.27a25.15,25.15,0,0,1-2.29,3.23,21.38,21.38,0,0,0,3.56-7,13.41,13.41,0,0,0,.46-3.84,17.92,17.92,0,0,0-.17-1.94c-.09-.64-.21-1.29-.34-1.92-.28-1.28-.61-2.56-.87-3.87-.13-.65-.23-1.31-.31-2a19.39,19.39,0,0,1-.14-2,13.31,13.31,0,0,1,.56-4,15.69,15.69,0,0,1,1.67-3.68c1.38-2.3,3.13-4.29,4.45-6.51a12.7,12.7,0,0,0,1.47-3.54,11.19,11.19,0,0,0,.23-1.91,13.85,13.85,0,0,0-.08-1.93A21.67,21.67,0,0,0,115.74,40a24.47,24.47,0,0,0-2.09-3.33A15.86,15.86,0,0,0,111,33.82Z" fill="#47515e"/><path d="M106.65,26.37l-1,11.36L93.45,29.07s9.57,8.76,9.77,20.08-7.6,18.47-6.85,29,9.18,23.17,9.18,23.17c-1.83-12.67,1.65-17.74,8.53-38.92S106.65,26.37,106.65,26.37Z" fill="#47515e"/><path d="M109.44,36.43c-.27.13-.54.22-.85.36v-.63l-.13-6.76a25,25,0,0,0,1.16-4.56v-.05c1.12-.58,2.91-1.25,4.52-.44C116.29,25.42,118.21,32.45,109.44,36.43Z" fill="#f9cbcb"/><path d="M110.75,27.28a24.58,24.58,0,0,1-4.34,13.87c-3.58,5.29-9.13,8.82-15,8.82-5.46,0-11.91-4.21-15.93-10.34a22.2,22.2,0,0,1-3.94-12.35c0-12,8.81-21.79,19.6-21.79S110.75,15.25,110.75,27.28Z" fill="#f9cbcb"/><path d="M107.6,22.94c3.06,5.92,2.1,3.89.84,12.1C104.66,18.81,84,24.44,82.27,10.38l-.82-.88a15.36,15.36,0,0,1,3.61-2.16l16.78,3.38C105,13.73,105.33,18.56,107.6,22.94Z" fill="#f0b4b4"/><path d="M74.75,28.73l-.18,8.06a.39.39,0,0,0-.22-.09v-.05c-.45-.18-.85-.36-1.25-.53-9.17-4.79-6-11.33-3.94-12.4a4.8,4.8,0,0,1,4.39.45.76.76,0,0,0-.09.36A16.89,16.89,0,0,0,74.75,28.73Z" fill="#f9cbcb"/><path d="M111.2,25.05c-.22,3.58-1.54,8.94-2.74,10.25-.83-17.4-18.71-10.67-26.4-25.65-.28,9.18-12,9.93-6.31,30.44-5.4-7.8-4-13.65-4.35-14.55a19.54,19.54,0,0,1,0-12C77.12-1.65,91.89.68,94.41.87c11.62.9,15.29,10.8,16.32,15.5A35.18,35.18,0,0,1,111.2,25.05Z" fill="#47515e"/><path d="M111.2,25.05c-.53-7-3.57-21.75-20.07-21.75C72.5,3.3,71.35,20.51,71.4,25.54a19.54,19.54,0,0,1,0-12C77.12-1.65,91.63,0,94.14.14c11.63.9,15.56,11.53,16.59,16.23A35.18,35.18,0,0,1,111.2,25.05Z" fill="#f44a91"/><ellipse cx="80.52" cy="36.03" rx="2.32" ry="1.27" fill="#ffb0b0"/><path d="M87.93,41.75a13.83,13.83,0,0,0,4.18.57,11.59,11.59,0,0,0,4.18-.57,7.85,7.85,0,0,1-4.18,1.18A8.52,8.52,0,0,1,87.93,41.75Z" fill="#faa2a2"/><path d="M104.66,36c0,.7-1,1.27-2.32,1.27S100,36.73,100,36s1-1.26,2.33-1.26S104.66,35.33,104.66,36Z" fill="#ffb0b0"/><path d="M84.45,33.67c-1.48,0-2.53-1-3.6-.94a2.14,2.14,0,0,0-1,.32,7.27,7.27,0,0,1,.94-.11,1.93,1.93,0,0,0-1,.6,2.12,2.12,0,0,1,1.16-.31.89.89,0,0,1,.35.06,1.59,1.59,0,0,0-.79.5,2.93,2.93,0,0,1,1.2-.32,5.87,5.87,0,0,0,2.78.83,4.94,4.94,0,0,0,3.77-1.61A7,7,0,0,1,84.45,33.67Z" fill="#575757"/><path d="M99,33.72c1.48,0,2.48-1,3.55-1a2.18,2.18,0,0,1,1,.32,7.27,7.27,0,0,0-.94-.11,1.89,1.89,0,0,1,1,.6,2.12,2.12,0,0,0-1.16-.31.92.92,0,0,0-.35.06,1.58,1.58,0,0,1,.8.5,3,3,0,0,0-1.21-.32,5.83,5.83,0,0,1-2.78.83,4.94,4.94,0,0,1-3.77-1.61A7.16,7.16,0,0,0,99,33.72Z" fill="#575757"/><path d="M81.31,10.13a13,13,0,0,1,.46,4.4,9.81,9.81,0,0,1-.41,2.2,11,11,0,0,1-.89,2.06,14.81,14.81,0,0,1-2.81,3.48c-.28.25-.56.5-.84.73a8,8,0,0,0-.79.72,4.18,4.18,0,0,0-1,1.8A5.63,5.63,0,0,0,75,27.61a12,12,0,0,0,.48,2.1c.44,1.38,1,2.73,1.55,4.11.27.69.52,1.38.73,2.1a10.14,10.14,0,0,1,.43,2.18,5.21,5.21,0,0,1-.26,2.22A4.33,4.33,0,0,1,76.6,42.1a4.44,4.44,0,0,0,1.16-1.83,5,5,0,0,0,.15-2.14A17.16,17.16,0,0,0,76.61,34C76,32.62,75.43,31.28,75,29.86a11.38,11.38,0,0,1-.53-2.18,6.16,6.16,0,0,1,.09-2.3,4.65,4.65,0,0,1,1.11-2,8.6,8.6,0,0,1,.84-.77c.28-.23.55-.46.82-.71a14.91,14.91,0,0,0,2.78-3.31,10.25,10.25,0,0,0,1.41-4.06,11.33,11.33,0,0,0,.08-2.18A18.13,18.13,0,0,0,81.31,10.13Z" fill="#47515e"/></g></g></svg>