<svg xmlns="http://www.w3.org/2000/svg" viewBox="0 0 64 64" width="256" height="256"><path d="M16.2 17.8C16.2 9 23.3 1.9 32 1.9c8.7 0 15.8 7.1 15.8 15.8v8.8h-2.6v-8.8c0-7.3-5.9-13.2-13.2-13.2-7.3 0-13.2 5.9-13.2 13.2v8.8h-2.6v-8.7zm27.1 0v8.8H20.7v-8.8c0-6.2 5.1-11.2 11.3-11.2 6.2-.1 11.3 5 11.3 11.2zm6.5 8.9v-8.9C49.8 8 41.8 0 32 0S14.2 8 14.2 17.8v8.9c-2.2.5-3.9 2.5-3.9 4.8v18.6c0 7.6 6.2 13.9 13.9 13.9h15.5c7.7 0 13.9-6.2 13.9-13.9V31.5c0-2.3-1.6-4.3-3.8-4.8zm1.9 23.4c0 6.6-5.4 11.9-11.9 11.9H24.2c-6.6 0-11.9-5.4-11.9-11.9V31.5c0-1.6 1.3-2.9 2.9-3h33.5c1.7 0 3 1.3 3 3v18.6z" fill="#fff" class="color000 svgShape"></path><path fill="#ff4990" d="M48.7 28.5H15.2c-1.6.1-2.9 1.4-2.9 3v18.6c0 6.6 5.4 11.9 11.9 11.9h15.5c6.6 0 11.9-5.4 11.9-11.9V31.5c.1-1.6-1.2-3-2.9-3zM36.1 51.1c.1.4 0 .9-.3 1.2-.3.3-.7.5-1.1.5h-5.3c-.4 0-.9-.2-1.1-.5-.3-.3-.4-.8-.3-1.2l1.2-6.1a4.1 4.1 0 0 1-1.4-3.1c0-2.3 1.9-4.2 4.2-4.2 2.3 0 4.2 1.9 4.2 4.2 0 1.2-.5 2.3-1.4 3.1l1.3 6.1z" class="colorf2776b svgShape"></path><path fill="#e85c93" d="M50.8 54.5c-.4 1.1-1 2-1.7 2.9-2 1.6-4.6 2.5-7.3 2.5H26.3c-6.6 0-11.9-5.4-11.9-11.9V29.4c0-.3 0-.5.1-.8.2-.1.5-.1.7-.1H19v14.9c0 6.6 5.4 11.9 11.9 11.9h15.5c1.6.1 3.1-.2 4.4-.8z" class="colore8625c svgShape"></path><path fill="#da578a" d="M49.2 57.4C47 60.2 43.6 62 39.8 62H24.2c-6.6 0-11.9-5.4-11.9-11.9V31.5c0-1.4.9-2.5 2.2-2.9-.1.3-.1.5-.1.8V48c0 6.6 5.4 11.9 11.9 11.9h15.5c2.8.1 5.4-.9 7.4-2.5z" class="colorda5b57 svgShape"></path><path fill="#edecec" d="M47.8 17.8v8.8h-2.6v-8.8c0-7.3-5.9-13.2-13.2-13.2-7.3 0-13.2 5.9-13.2 13.2v8.8h-2.6v-8.8C16.2 9 23.3 1.9 32 1.9c8.7 0 15.8 7.1 15.8 15.9z" class="coloredeced svgShape"></path><path fill="#bfbcbd" d="M32.6 1.9c-8.5.3-15.3 7.3-15.3 15.8v8.8h-1.1v-8.8C16.2 9 23.3 1.9 32 1.9h.6z" class="colorbfbebc svgShape"></path><path fill="#d6d5d5" d="M34.3 2.1c-3.2.5-6.1 1.9-8.4 4-4.2 2.2-7.1 6.6-7.1 11.7v8.8h-1.5v-8.8c0-8.5 6.8-15.5 15.3-15.8.5 0 1.1 0 1.7.1z" class="colord5d6d5 svgShape"></path><path d="M34.9 45c.9-.8 1.4-1.9 1.4-3.1 0-2.3-1.9-4.2-4.2-4.2-2.3 0-4.2 1.9-4.2 4.2 0 1.2.5 2.3 1.4 3.1l-1.2 6.1c-.1.4 0 .9.3 1.2.3.3.7.5 1.1.5h5.3c.4 0 .9-.2 1.1-.5.3-.3.4-.8.3-1.2L34.9 45zm-2-.2 1.2 6.1h-4.2l1.2-6.1c.1-.4-.1-.8-.4-1-.6-.4-1-1.1-1-1.9 0-1.3 1-2.3 2.3-2.3 1.3 0 2.3 1 2.3 2.3 0 .8-.4 1.5-1 1.9-.4.3-.5.7-.4 1z" fill="#fff" class="color000 svgShape"></path></svg>