<svg xmlns="http://www.w3.org/2000/svg" width="140" height="140"><path fill="#80C3FF" d="M21.744 124.664a5.41 5.41 0 0 1-10.82 0V76.007a5.41 5.41 0 0 1 10.82 0v48.657z"/><path fill="#2A8BF4" d="M16.334 70.596a5.41 5.41 0 0 1 5.41 5.411v48.656a5.41 5.41 0 0 1-5.41 5.411"/><path fill="none" stroke="#33363A" stroke-linecap="round" stroke-linejoin="round" stroke-miterlimit="10" stroke-width="3" d="M21.744 124.664a5.41 5.41 0 0 1-10.82 0V76.007a5.41 5.41 0 0 1 10.82 0v48.657zM16.334 120.547v1.334M16.334 27.872v21.167"/><path fill="none" stroke="#33363A" stroke-linecap="round" stroke-linejoin="round" stroke-miterlimit="10" stroke-width="5" d="M16.334 53.194v16.167"/><path fill="none" stroke="#33363A" stroke-linecap="round" stroke-linejoin="round" stroke-miterlimit="10" stroke-width="3" d="M23.244 28.372v13.346a6.91 6.91 0 0 1-13.82 0V28.372"/><path fill="#33363A" d="M23.686 52.275a4.164 4.164 0 0 1-4.164 4.163h-6.375a4.162 4.162 0 0 1-4.162-4.163v-7.706c0-2.3 1.863-4.164 4.162-4.164h6.375a4.164 4.164 0 0 1 4.164 4.164v7.706z"/><path fill="none" stroke="#33363A" stroke-linecap="round" stroke-linejoin="round" stroke-miterlimit="10" stroke-width="3" d="M23.686 52.275a4.164 4.164 0 0 1-4.164 4.163h-6.375a4.162 4.162 0 0 1-4.162-4.163v-7.706c0-2.3 1.863-4.164 4.162-4.164h6.375a4.164 4.164 0 0 1 4.164 4.164v7.706z"/><path fill="#FFF" d="M130.936 80.869c0 28.36-22.988 51.351-51.352 51.351-28.357 0-51.348-22.99-51.348-51.351s22.99-51.351 51.348-51.351c28.363 0 51.352 22.99 51.352 51.351z"/><path fill="#C8DBDB" d="M79.584 29.518c28.363 0 51.352 22.99 51.352 51.351s-22.988 51.351-51.352 51.351"/><path fill="none" stroke="#33363A" stroke-linecap="round" stroke-linejoin="round" stroke-miterlimit="10" stroke-width="3" d="M130.936 80.869c0 28.36-22.988 51.351-51.352 51.351-28.357 0-51.348-22.99-51.348-51.351s22.99-51.351 51.348-51.351c28.363 0 51.352 22.99 51.352 51.351z"/><circle cx="79.584" cy="80.869" r="34.118" fill="#FFF"/><path fill="#C8DBDB" d="M45.467 80.869c0-18.843 15.275-34.118 34.117-34.118 18.846 0 34.119 15.275 34.119 34.118"/><circle cx="79.584" cy="80.869" r="34.118" fill="none" stroke="#33363A" stroke-linecap="round" stroke-linejoin="round" stroke-miterlimit="10" stroke-width="3"/><circle cx="79.585" cy="80.867" r="20.614" fill="#C8DBDB"/><path fill="#FFF" d="M79.584 101.483c-11.385 0-20.613-9.23-20.613-20.616 0-11.385 9.229-20.614 20.613-20.614"/><path fill="#83ED88" d="M128.609 61.5c-7.094-32.062-38.834-52.301-70.896-45.207l12.848 58.051L128.609 61.5z"/><path fill="#5FCE96" d="M122.184 62.922c-6.307-28.514-34.535-46.514-63.049-40.205l11.426 51.625 51.623-11.42z"/><path fill="#F42535" d="M118.152 63.814c-5.816-26.286-31.838-42.88-58.125-37.064L70.56 74.344l47.592-10.53z"/><path fill="#FC4259" d="m70.561 74.342 47.592-10.528c-2.908-13.144-10.867-23.863-21.387-30.571L70.561 74.342z"/><path fill="#D60024" d="m114.877 64.538 3.275-.724c-5.816-26.286-31.838-42.88-58.125-37.064l.729 3.276c24.107-3.697 47.303 11.093 54.121 34.512z"/><path fill="#F42535" d="M115.631 55.799a48.635 48.635 0 0 0-18.865-22.557l-2.467 3.869c9.664 6.164 17.168 15.716 20.578 27.426l3.275-.724a48.84 48.84 0 0 0-1.695-5.856 52.544 52.544 0 0 0-.826-2.158z"/><path fill="#FC4259" d="m60.027 26.75 10.534 47.593 47.591-10.529-43.894 4.729z"/><path fill="#FF647E" d="m74.258 68.541-3.697 5.801v.001l47.591-10.529-43.894 4.729z"/><path fill="none" stroke="#33363A" stroke-linecap="round" stroke-linejoin="round" stroke-miterlimit="10" stroke-width="3" d="M128.609 61.5c-7.094-32.062-38.834-52.301-70.896-45.207l12.848 58.051L128.609 61.5zM118.152 63.814c-5.816-26.286-31.838-42.88-58.125-37.064"/><path fill="#A07F3C" d="M87.787 62.153c0 15.915-12.904 28.816-28.816 28.816-15.916 0-28.818-12.901-28.818-28.816s12.902-28.817 28.818-28.817c15.912-.001 28.816 12.902 28.816 28.817z"/><path fill="#84692C" d="M87.787 62.153c0 15.915-12.904 28.816-28.816 28.816-15.916 0-28.818-12.901-28.818-28.816"/><path fill="#84692C" d="M58.971 33.335v57.634c15.912 0 28.816-12.901 28.816-28.816S74.883 33.335 58.971 33.335z"/><path fill="#705622" d="M58.971 62.153v28.816c15.912 0 28.816-12.901 28.816-28.816H58.971z"/><path fill="none" stroke="#33363A" stroke-linecap="round" stroke-linejoin="round" stroke-miterlimit="10" stroke-width="3" d="M87.787 62.153c0 15.915-12.904 28.816-28.816 28.816-15.916 0-28.818-12.901-28.818-28.816s12.902-28.817 28.818-28.817c15.912-.001 28.816 12.902 28.816 28.817z"/><circle cx="58.97" cy="62.153" r="19.378" fill="#BEDD05"/><path fill="#DEF21D" d="M39.592 62.153c0-10.702 8.676-19.378 19.379-19.378"/><path fill="#85C606" d="M39.592 62.153c0 10.703 8.676 19.377 19.379 19.377 10.701 0 19.377-8.674 19.377-19.377H39.592z"/><path fill="#BEDD05" d="M39.592 62.153c0 10.703 8.676 19.377 19.379 19.377"/><path fill="#85C606" d="M58.971 42.775V81.53c10.701 0 19.377-8.674 19.377-19.377 0-10.702-8.676-19.378-19.377-19.378z"/><path fill="#52C408" d="M78.348 62.153c0-10.702-8.676-19.378-19.377-19.378M58.971 62.153V81.53c10.701 0 19.377-8.674 19.377-19.377H58.971z"/><path fill="#25C10A" d="M58.971 81.53c10.701 0 19.377-8.674 19.377-19.377"/><circle cx="58.971" cy="62.152" r="6.882" fill="#BEDD05"/><path fill="#85C606" d="M58.971 69.034c3.801 0 6.881-3.08 6.881-6.881s-3.08-6.883-6.881-6.883v13.764z"/><path fill="#85C606" d="M52.086 62.153h13.766a6.884 6.884 0 0 0-13.766 0z"/><path fill="#52C408" d="M58.971 62.153h6.881a6.882 6.882 0 0 0-6.881-6.883v6.883z"/><circle cx="58.97" cy="62.153" r="4.126" fill="#BEDD05"/><path fill="#85C606" d="M63.096 62.153a4.128 4.128 0 0 0-4.125-4.128 4.128 4.128 0 0 0-4.127 4.128h8.252z"/><path fill="#85C606" d="M58.971 66.28v-8.255a4.128 4.128 0 0 0 0 8.255z"/><path fill="#52C408" d="M58.971 62.153v-4.128a4.128 4.128 0 0 0-4.127 4.128h4.127z"/><circle cx="58.971" cy="62.152" r="19.377" fill="none" stroke="#33363A" stroke-linecap="round" stroke-linejoin="round" stroke-miterlimit="10" stroke-width="3"/><path fill="#FFE108" d="M95.33 40.122c-2.541 7.499-16.943 69.981-9.445 72.522 7.5 2.542 34.057-55.821 36.6-63.319s-2.203-13.488-9.703-16.032c-7.497-2.541-14.909-.669-17.452 6.829z"/><path fill="#FFB206" d="M95.33 40.122c-2.541 7.499-16.943 69.981-9.445 72.522 7.5 2.542 34.057-55.821 36.6-63.319s-3.656-9.2-11.156-11.742c-7.497-2.542-13.456-4.959-15.999 2.539z"/><path fill="#FF8103" d="M95.33 40.122c-2.541 7.499-16.943 69.981-9.445 72.522 7.5 2.542 34.057-55.821 36.6-63.319"/><path fill="#FF6B06" d="M85.885 112.644c-5.676-1.923 1.197-38.192 5.977-58.961l25.133 8.52c-8.835 19.391-25.432 52.366-31.11 50.441z"/><path fill="#ED4706" d="M85.885 112.644c-4.227-1.433-1.49-21.937 2.156-40.886l20.994 7.116c-8.627 17.262-18.92 35.205-23.15 33.77z"/><path fill="#D83705" d="M85.885 112.644c-2.953-1.001-2.506-11.312-.725-23.896l15.834 5.366c-6.24 11.074-12.154 19.533-15.109 18.53z"/><path fill="none" stroke="#33363A" stroke-linecap="round" stroke-linejoin="round" stroke-miterlimit="10" stroke-width="3" d="M95.33 40.122c-2.541 7.499-16.943 69.981-9.445 72.522 7.5 2.542 34.057-55.821 36.6-63.319s-2.203-13.488-9.703-16.032c-7.497-2.541-14.909-.669-17.452 6.829z"/><path fill="#92FC6B" d="M113.168 33.934a2.532 2.532 0 0 0 1.988-2.979c-1.074-5.398 2.439-10.667 7.838-11.743a2.534 2.534 0 0 0-.988-4.969c-8.141 1.623-13.439 9.564-11.818 17.701a2.534 2.534 0 0 0 2.98 1.99z"/><path fill="#70D63A" d="M122.662 17.557a2.527 2.527 0 0 1 2.01.461 2.518 2.518 0 0 1-1.678 1.194c-5.398 1.076-8.912 6.345-7.838 11.743a2.531 2.531 0 1 1-4.57 1.93c-.277-7.254 4.736-13.865 12.076-15.328z"/><path fill="none" stroke="#33363A" stroke-linecap="round" stroke-linejoin="round" stroke-miterlimit="10" stroke-width="3" d="M113.168 33.934a2.532 2.532 0 0 0 1.988-2.979c-1.074-5.398 2.439-10.667 7.838-11.743a2.534 2.534 0 0 0-.988-4.969c-8.141 1.623-13.439 9.564-11.818 17.701a2.534 2.534 0 0 0 2.98 1.99z"/><path fill="#92FC6B" d="M114.418 33.378a2.533 2.533 0 0 0 .232-3.575c-3.631-4.137-3.221-10.457.918-14.088a2.535 2.535 0 0 0-3.344-3.808c-6.238 5.475-6.857 15.004-1.381 21.238a2.53 2.53 0 0 0 3.575.233z"/><path fill="#70D63A" d="M114.453 14.446a2.517 2.517 0 0 1 1.967-.603 2.525 2.525 0 0 1-.852 1.872c-4.139 3.631-4.549 9.951-.918 14.088a2.534 2.534 0 0 1-2.994 3.957c-3.867-6.143-2.83-14.375 2.797-19.314z"/><path fill="none" stroke="#33363A" stroke-linecap="round" stroke-linejoin="round" stroke-miterlimit="10" stroke-width="3" d="M114.418 33.378a2.533 2.533 0 0 0 .232-3.575c-3.631-4.137-3.221-10.457.918-14.088a2.535 2.535 0 0 0-3.344-3.808c-6.238 5.475-6.857 15.004-1.381 21.238a2.53 2.53 0 0 0 3.575.233z"/><path fill="#92FC6B" d="M113.416 29.649a2.535 2.535 0 0 1 .232-3.576c4.135-3.63 4.549-9.95.916-14.088a2.535 2.535 0 0 1 .232-3.575 2.535 2.535 0 0 1 3.576.233c5.475 6.236 4.854 15.764-1.383 21.237a2.531 2.531 0 0 1-3.573-.231z"/><path fill="#70D63A" d="M115.834 10.872a2.525 2.525 0 0 0-1.873-.854c-.08.688.111 1.406.604 1.967 3.633 4.138 3.219 10.458-.916 14.088a2.534 2.534 0 0 0 2.456 4.313c4.629-5.591 4.668-13.887-.271-19.514z"/><path fill="none" stroke="#33363A" stroke-linecap="round" stroke-linejoin="round" stroke-miterlimit="10" stroke-width="3" d="M113.416 29.649a2.535 2.535 0 0 1 .232-3.576c4.135-3.63 4.549-9.95.916-14.088a2.535 2.535 0 0 1 .232-3.575 2.535 2.535 0 0 1 3.576.233c5.475 6.236 4.854 15.764-1.383 21.237a2.531 2.531 0 0 1-3.573-.231z"/><path fill="#92FC6B" d="M112.76 28.447a2.535 2.535 0 0 1 1.99-2.979c5.396-1.076 8.912-6.344 7.84-11.742a2.533 2.533 0 0 1 4.968-.991c1.623 8.139-3.68 16.079-11.818 17.702a2.536 2.536 0 0 1-2.98-1.99z"/><path fill="#70D63A" d="M124.244 13.395a2.515 2.515 0 0 0-1.193-1.674 2.508 2.508 0 0 0-.461 2.004c1.072 5.398-2.443 10.666-7.84 11.742a2.534 2.534 0 0 0-1.99 2.979 2.537 2.537 0 0 0 1.959 1.982c6.808-2.525 10.99-9.69 9.525-17.033z"/><path fill="none" stroke="#33363A" stroke-linecap="round" stroke-linejoin="round" stroke-miterlimit="10" stroke-width="3" d="M112.76 28.447a2.535 2.535 0 0 1 1.99-2.979c5.396-1.076 8.912-6.344 7.84-11.742a2.533 2.533 0 0 1 4.968-.991c1.623 8.139-3.68 16.079-11.818 17.702a2.536 2.536 0 0 1-2.98-1.99z"/><path fill="#92FC6B" d="M111.725 36.297a2.534 2.534 0 0 1-1.588-3.212c1.77-5.214-1.035-10.893-6.248-12.66a2.535 2.535 0 0 1-1.588-3.212 2.538 2.538 0 0 1 3.215-1.587c7.857 2.665 12.086 11.226 9.42 19.085a2.53 2.53 0 0 1-3.211 1.586z"/><path fill="#70D63A" d="M104.43 18.827a2.514 2.514 0 0 0-2.047.197 2.518 2.518 0 0 0 1.506 1.401c5.213 1.768 8.018 7.446 6.248 12.66a2.534 2.534 0 0 0 4.283 2.507c1.215-7.158-2.9-14.362-9.99-16.765z"/><path fill="none" stroke="#33363A" stroke-linecap="round" stroke-linejoin="round" stroke-miterlimit="10" stroke-width="3" d="M111.725 36.297a2.534 2.534 0 0 1-1.588-3.212c1.77-5.214-1.035-10.893-6.248-12.66a2.535 2.535 0 0 1-1.588-3.212 2.538 2.538 0 0 1 3.215-1.587c7.857 2.665 12.086 11.226 9.42 19.085a2.53 2.53 0 0 1-3.211 1.586z"/><path fill="#92FC6B" d="M111.799 36.323a2.535 2.535 0 0 0 3.211-1.586c1.766-5.213 7.445-8.018 12.66-6.251a2.533 2.533 0 1 0 1.623-4.799c-7.857-2.663-16.418 1.563-19.082 9.423a2.534 2.534 0 0 0 1.588 3.213z"/><path fill="#70D63A" d="M128.211 26.887c.707.239 1.23.765 1.506 1.402a2.518 2.518 0 0 1-2.047.196c-5.215-1.767-10.895 1.038-12.66 6.251a2.535 2.535 0 0 1-4.926-.614c3.387-6.421 11.035-9.639 18.127-7.235z"/><path fill="none" stroke="#33363A" stroke-linecap="round" stroke-linejoin="round" stroke-miterlimit="10" stroke-width="3" d="M111.799 36.323a2.535 2.535 0 003.211-1.586c1.766-5.213 7.445-8.018 12.66-6.251a2.533 2.533 0 101.623-4.799c-7.857-2.663-16.418 1.563-19.082 9.423a2.534 2.534 0 001.588 3.213zM114.873 46.745l6.602 2.238M110.07 45.048l-1.148-.365M104.049 43.047l.453.145M99.785 41.602l.451.145M112.178 54.695l6.601 2.237M107.375 52.998l-1.148-.365M101.352 50.999l.455.143M97.088 49.552l.455.144M109.07 62.506l6.604 2.239M104.271 60.81l-1.148-.364M98.246 58.809l.455.145M93.982 57.364l.454.143M105.354 70.109l6.599 2.238M100.553 68.414l-1.151-.367M94.527 66.413l.453.144M90.266 64.966l.451.145M102.082 77.866l6.154 2.086M97.611 76.28l-1.074-.34M91.994 74.417l.422.134M88.02 73.07l.421.134M97.709 85.247l6.604 2.238M92.906 83.549l-1.148-.364M86.885 81.549l.453.145M93.578 92.711l6.604 2.239M88.777 91.014l-1.148-.365M89.168 100.081l6.603 2.238M85.391 98.731l-1.149-.367M84.295 107.292l6.601 2.238"/><path fill="#C17E25" d="M116.033 101.602c0 17.107-16.32 17.805-36.447 17.805s-36.445-.697-36.445-17.805c0-17.105 16.318-30.975 36.445-30.975s36.447 13.87 36.447 30.975z"/><path fill="#FFF" d="M116.033 101.602c0 17.107-16.32 17.805-36.447 17.805s-36.445-.697-36.445-17.805c0-17.105 16.318-30.975 36.445-30.975s36.447 13.87 36.447 30.975z"/><path fill="#F4F3E9" d="M116.033 101.602c0 17.107-16.32 17.805-36.447 17.805s-36.445-.697-36.445-17.805c0-17.105 16.318.086 36.445.086s36.447-17.191 36.447-.086z"/><path fill="#E0DECE" d="M79.586 110.547c-18.092 0-33.104-13.887-35.953-4.271 2.838 12.559 17.852 13.131 35.953 13.131 18.104 0 33.117-.572 35.957-13.131-2.854-9.615-17.865 4.271-35.957 4.271z"/><path fill="none" stroke="#33363A" stroke-linecap="round" stroke-linejoin="round" stroke-miterlimit="10" stroke-width="3" d="M116.033 101.602c0 17.107-16.32 17.805-36.447 17.805s-36.445-.697-36.445-17.805c0-17.105 16.318-30.975 36.445-30.975s36.447 13.87 36.447 30.975z"/><path fill="#D3D1C1" d="M97.236 96.582c0 16.511-7.902 18.319-17.65 18.319s-17.65-1.809-17.65-18.319c0-8.457 7.902-15.312 17.65-15.312s17.65 6.855 17.65 15.312z"/><path fill="#FFBC00" d="M97.236 96.582c0 8.456-7.902 12.182-17.65 12.182s-17.65-3.726-17.65-12.182c0-8.457 7.902-15.312 17.65-15.312s17.65 6.855 17.65 15.312z"/><path fill="#FFCE00" d="M79.586 84.213c9.17 0 16.703 6.065 17.564 13.822.057-.469.086-.951.086-1.454 0-8.457-7.902-15.312-17.65-15.312s-17.65 6.854-17.65 15.312c0 .503.031.985.086 1.454.861-7.756 8.396-13.822 17.564-13.822z"/><path fill="#FF9100" d="M97.236 96.582c0 8.456-7.902 12.182-17.65 12.182s-17.65-3.726-17.65-12.182c0-8.457 7.902-.027 17.65-.027s17.65-8.43 17.65.027z"/><path fill="none" stroke="#33363A" stroke-linecap="round" stroke-linejoin="round" stroke-miterlimit="10" stroke-width="3" d="M97.236 96.582c0 8.456-7.902 12.182-17.65 12.182s-17.65-3.726-17.65-12.182c0-8.457 7.902-15.312 17.65-15.312s17.65 6.855 17.65 15.312z"/><path fill="none" stroke="#FFEF5A" stroke-linecap="round" stroke-linejoin="round" stroke-miterlimit="10" stroke-width="4" d="M67.148 91.874c.621-4.393 7.465-7.436 10.631-7.436M66.889 96.371c.031-.214.361-.36.516-.36"/><path fill="none" stroke="#FFEF5A" stroke-linecap="round" stroke-linejoin="round" stroke-miterlimit="10" stroke-width="2" d="M67.143 99.722c.008-.052.088-.087.125-.087"/></svg>