<svg xmlns="http://www.w3.org/2000/svg" viewBox="0 0 50 50"><path fill="#e9e9e9" d="M25 2.5c-6.9 0-12.5 5.6-12.5 12.5v6.5h4V15c0-4.7 3.8-8.5 8.5-8.5s8.5 3.9 8.5 8.5v6.5h4V15c0-6.9-5.6-12.5-12.5-12.5z"/><path fill="#3e3f3f" d="M37.5 22.3h-4c-.4 0-.8-.3-.8-.8V15c0-4.2-3.4-7.8-7.8-7.8-4.3 0-7.8 3.5-7.8 7.8v6.5c0 .4-.3.8-.8.8h-4c-.4 0-.8-.3-.8-.8V15c0-7.3 5.9-13.3 13.3-13.3s13.4 6 13.4 13.3v6.5c0 .4-.3.8-.7.8zm-3.3-1.5h2.5V15c0-6.5-5.3-11.8-11.8-11.8S13.2 8.6 13.2 15v5.7h2.5V15c0-5.1 4.1-9.3 9.3-9.3 5.1 0 9.3 4.2 9.3 9.3v5.8z"/><path fill="#FF4990" d="M37.9 21.5H12.2c-2.2 0-4 1.8-4 4v17.9c0 2.2 1.8 4 4 4h25.7c2.2 0 4-1.8 4-4V25.5c0-2.2-1.8-4-4-4z"/><path fill="#3e3f3f" d="M37.9 48.2H12.1c-2.6 0-4.8-2.1-4.8-4.8V25.5c0-2.6 2.1-4.8 4.8-4.8h25.7c2.6 0 4.8 2.1 4.8 4.8v17.9c0 2.7-2.1 4.8-4.7 4.8zM12.1 22.3c-1.8 0-3.3 1.5-3.3 3.3v17.9c0 1.8 1.5 3.3 3.3 3.3h25.7c1.8 0 3.3-1.5 3.3-3.3v-18c0-1.8-1.5-3.3-3.3-3.3H12.1z"/><path fill="#fff" d="M11 25.5c-.4 0-.8.3-.8.8v.8c0 .4.3.8.8.8s.8-.3.8-.8v-.8c0-.4-.4-.8-.8-.8zM11 29c-.4 0-.8.3-.8.8v11.8c0 .4.3.8.8.8s.8-.3.8-.8V29.7c0-.4-.4-.7-.8-.7z"/><path fill="#7a7a7a" d="M29.1 32.4c0-2.3-1.9-4.1-4.1-4.1-2.3 0-4.1 1.9-4.1 4.1 0 1.5.8 2.9 2.1 3.6l-.7 6.3h5.6l-.8-6.3c1.2-.8 2-2.1 2-3.6z"/><path fill="#333" d="M27.8 43h-5.6c-.2 0-.4-.1-.6-.3-.1-.2-.2-.4-.2-.6l.7-5.8c-1.3-.9-2-2.4-2-3.9 0-2.7 2.2-4.9 4.9-4.9s4.9 2.2 4.9 4.9c0 1.6-.8 3-2 3.9l.7 5.8c0 .2 0 .4-.2.6-.2.2-.4.3-.6.3zm-4.7-1.5H27l-.7-5.5c0-.3.1-.6.4-.7 1.1-.6 1.7-1.7 1.7-2.9 0-1.9-1.5-3.4-3.4-3.4s-3.4 1.5-3.4 3.4c0 1.2.6 2.3 1.7 2.9.3.1.4.4.4.7l-.6 5.5z"/><path fill="#333" d="M22.1 36.3zM25 29c-1.9 0-3.4 1.5-3.4 3.4 0 1.1.6 2.2 1.5 2.8-.3-.5-.5-1.2-.5-1.8 0-1.9 1.5-3.4 3.4-3.4.7 0 1.3.2 1.8.6-.6-1-1.6-1.6-2.8-1.6zM24.7 37c0-.3-.1-.6-.4-.7-.2-.1-.4-.3-.6-.5v.2l-.6 5.5h1.1l.5-4.5z" opacity=".15"/></svg>