<svg xmlns="http://www.w3.org/2000/svg" viewBox="0 0 24 24"><path fill="#423037" d="M21.854 6.854a.5.5 0 0 0 0-.708l-2-2a.5.5 0 0 0-.708 0l-1.561 1.562A9.947 9.947 0 0 0 14 4.202V3h.5a.5.5 0 0 0 .5-.5v-2a.5.5 0 0 0-.5-.5h-5a.5.5 0 0 0-.5.5v2a.5.5 0 0 0 .5.5h.5v1.202a9.947 9.947 0 0 0-3.585 1.506L4.854 4.146a.5.5 0 0 0-.708 0l-2 2a.5.5 0 0 0 0 .708l1.562 1.561A9.943 9.943 0 0 0 2 14c0 5.514 4.486 10 10 10s10-4.486 10-10c0-2.067-.63-3.989-1.708-5.585l1.562-1.561z" class="color303c42 svgShape"/><path fill="#ff4990" d="M19.5 5.207L20.793 6.5l-1.11 1.11c-.39-.47-.823-.903-1.292-1.293l1.109-1.11zM10.5 2H10V1h4v1h-.5a.5.5 0 00-.5.5v1.55a10.065 10.065 0 00-2 0V2.5a.5.5 0 00-.5-.5z" class="color546e7a svgShape"/><path fill="#fff" d="M10 1h4v.5h-4z" class="colorffffff svgShape" opacity=".2"/><path fill="#ff4990" d="M3.207 6.5L4.5 5.207l1.11 1.11c-.47.39-.903.823-1.293 1.292L3.207 6.5z" class="color546e7a svgShape"/><path fill="#e6e6e6" d="M12 23c-4.962 0-9-4.038-9-9s4.038-9 9-9 9 4.038 9 9-4.038 9-9 9z" class="colore6e6e6 svgShape"/><path d="M4.5 15c0-4.962 4.038-9 9-9a8.94 8.94 0 0 1 4.217 1.054A8.958 8.958 0 0 0 12 5c-4.962 0-9 4.038-9 9 0 3.439 1.94 6.431 4.783 7.946A8.986 8.986 0 0 1 4.5 15z" class="color000000 svgShape" opacity=".1"/><path fill="#423037" d="M12.95 14.244c.021-.08.05-.158.05-.244a.987.987 0 0 0-.5-.846V7.5a.5.5 0 1 0-1 0v5.654A.987.987 0 0 0 11 14c0 .551.449 1 1 1 .086 0 .164-.029.244-.05l2.903 2.904a.498.498 0 0 0 .707 0 .5.5 0 0 0 0-.708l-2.903-2.902z" class="color303c42 svgShape"/><linearGradient id="a" x1="10.232" x2="19.834" y1="9.282" y2="18.884" gradientUnits="userSpaceOnUse"><stop offset="0" stop-opacity=".1"/><stop offset="1" stop-opacity="0"/></linearGradient><path fill="url(#a)" d="M12.359 7.154c.086.09.141.211.141.346v5.654c.293.174.5.48.5.846 0 .086-.029.164-.05.244l2.904 2.902a.5.5 0 1 1-.707.708l-2.903-2.903c-.08.02-.158.049-.244.049a.992.992 0 0 1-.38-.077v.002l6.053 6.053a9.001 9.001 0 0 0 3.17-5.34L12.36 7.155z"/><path d="M3.963 7.256l.354.353c.39-.469.823-.902 1.292-1.292l-.353-.354c-.467.393-.9.826-1.293 1.293zM20.037 7.256c-.393-.467-.826-.9-1.293-1.293l-.353.354c.469.39.902.823 1.292 1.292l.354-.353z" class="color000000 svgShape" opacity=".1"/><linearGradient id="b" x1="1.672" x2="21.864" y1="7.092" y2="16.507" gradientUnits="userSpaceOnUse"><stop class="stopColorffffff svgShape" offset="0" stop-color="#fff" stop-opacity=".2"/><stop class="stopColorffffff svgShape" offset="1" stop-color="#fff" stop-opacity="0"/></linearGradient><path fill="url(#b)" d="M21.854 6.854a.5.5 0 0 0 0-.708l-2-2a.5.5 0 0 0-.708 0l-1.561 1.562A9.947 9.947 0 0 0 14 4.202V3h.5a.5.5 0 0 0 .5-.5v-2a.5.5 0 0 0-.5-.5h-5a.5.5 0 0 0-.5.5v2a.5.5 0 0 0 .5.5h.5v1.202a9.947 9.947 0 0 0-3.585 1.506L4.854 4.146a.5.5 0 0 0-.708 0l-2 2a.5.5 0 0 0 0 .708l1.562 1.561A9.943 9.943 0 0 0 2 14c0 5.514 4.486 10 10 10s10-4.486 10-10c0-2.067-.63-3.989-1.708-5.585l1.562-1.561z"/></svg>