<svg xmlns="http://www.w3.org/2000/svg" enable-background="new 0 0 512 512" viewBox="0 0 512 512"><path fill="#b1446f" d="M490.904,37.709v436.583c0,19.728-15.993,35.72-35.72,35.72H56.816
			c-19.728,0-35.72-15.993-35.72-35.72V37.709c0-19.728,15.993-35.72,35.72-35.72h398.368
			C474.912,1.988,490.904,17.981,490.904,37.709z" class="color44b19a svgShape"/><path fill="#ff4990" d="M344.69,84.638v135.554c0,6.089-2.581,11.949-7.208,15.908
			c-46.824,40.066-116.158,40.066-162.982,0c-4.627-3.959-7.208-9.819-7.208-15.908V84.638c0-6.089,2.581-11.949,7.207-15.908
			c46.824-40.067,116.158-40.067,162.982,0C342.109,72.689,344.69,78.549,344.69,84.638z" class="colorfdbb48 svgShape"/><path fill="#ffe6f0" d="M323.747,93.035l-0.119,30.402c0,5.358-2.54,10.478-6.906,13.614
			c-16.709,12.026-36.871,18.813-57.748,19.408c-0.992,0.04-1.984,0.04-2.977,0.04c-0.992,0-1.984,0-2.977-0.04
			c-20.916-0.595-41.039-7.421-57.867-19.487c-4.405-3.175-6.946-8.295-6.906-13.693l0.079-30.442
			c0.04-5.358,2.58-10.478,6.906-13.574c17.543-12.621,38.816-19.487,60.764-19.487c21.909,0,43.222,6.866,60.844,19.527
			C321.246,82.478,323.747,87.598,323.747,93.035z" class="colore6f5ff svgShape"/><path fill="#ff99c1" d="M211.525 101.692c-1.155 0-2.256-.674-2.738-1.806l-4.672-10.918c-.647-1.512.054-3.26 1.564-3.907 1.519-.643 3.264.05 3.909 1.566l4.672 10.918c.647 1.512-.054 3.26-1.564 3.907C212.311 101.615 211.914 101.692 211.525 101.692zM233.402 94.859c-1.386 0-2.626-.973-2.913-2.384l-2.372-11.639c-.328-1.609.711-3.182 2.322-3.512 1.614-.306 3.184.713 3.512 2.326l2.372 11.639c.328 1.609-.711 3.182-2.322 3.512C233.8 94.84 233.6 94.859 233.402 94.859zM255.991 92.58c-1.643 0-2.977-1.333-2.977-2.977V77.727c0-1.643 1.333-2.977 2.977-2.977s2.977 1.333 2.977 2.977v11.876C258.968 91.247 257.634 92.58 255.991 92.58zM278.582 94.859c-.198 0-.399-.019-.597-.058-1.612-.329-2.651-1.903-2.326-3.512l2.372-11.639c.333-1.612 1.934-2.639 3.512-2.326 1.612.329 2.651 1.903 2.326 3.512l-2.372 11.639C281.206 93.886 279.966 94.859 278.582 94.859zM300.461 101.692c-.391 0-.787-.078-1.171-.24-1.512-.643-2.213-2.395-1.566-3.907l4.67-10.918c.647-1.515 2.399-2.213 3.907-1.566 1.512.647 2.213 2.395 1.566 3.907l-4.67 10.918C302.717 101.014 301.616 101.692 300.461 101.692z" class="color99ccff svgShape"/><path fill="#4f3e45" d="M258.974,108.157v48.302c-0.992,0.04-1.984,0.04-2.977,0.04c-0.992,0-1.984,0-2.977-0.04v-48.302
				c0-1.667,1.31-2.977,2.977-2.977C257.624,105.18,258.974,106.49,258.974,108.157z" class="color3e484f svgShape"/></svg>