<svg id="Object" xmlns="http://www.w3.org/2000/svg" viewBox="0 0 170.05 109.26"><path d="M10.94,22.18A41.44,41.44,0,0,1,27.67,8.42,31.57,31.57,0,0,1,42.23,6l1.26.12c.65,0,1.29.1,1.91.19A61.29,61.29,0,0,1,53.84,7.8c9.84,2.45,18.52,7.07,30.6,13.57A12.08,12.08,0,0,0,92.67,23c8.85-1.67,14.6-14.79,26.26-20.37A25.18,25.18,0,0,1,126.46.34c.3,0,.6-.08.9-.1a37.07,37.07,0,0,1,9.84.19,36.19,36.19,0,0,1,7.89,2.07h0c1.07.42,2.13.88,3.15,1.38a40.13,40.13,0,0,1,7.19,4.51c15.8,12.41,21.16,35.47,4,47a.72.72,0,0,0-.15.11c-11.5,7.85-10.07,19.66-8.25,30.2,2.17,12.62,4.85,23.43-13.42,23.52-32.16.15-43.17-37.73-66.75-25.56A81.38,81.38,0,0,1,57,89.38C45,93.05,34.2,92.83,25.35,89.9,10.09,84.87.57,71.78,0,56.77A56.54,56.54,0,0,1,10.94,22.18Z" fill="#33649e"/></svg>