<svg id="Object" xmlns="http://www.w3.org/2000/svg" viewBox="0 0 170.05 109.26"><path d="M159.11,87.08a41.56,41.56,0,0,1-16.72,13.76,31.5,31.5,0,0,1-14.57,2.44c-.42,0-.84-.06-1.25-.12-.66,0-1.29-.1-1.91-.18a62.69,62.69,0,0,1-8.45-1.52c-9.84-2.45-18.52-7.08-30.6-13.58a12.14,12.14,0,0,0-8.23-1.61c-8.85,1.68-14.6,14.8-26.26,20.38a24.91,24.91,0,0,1-7.52,2.26c-.31,0-.61.09-.91.1a36.66,36.66,0,0,1-9.84-.18A36.2,36.2,0,0,1,25,106.75h0c-1.07-.42-2.13-.87-3.15-1.37a40.7,40.7,0,0,1-7.19-4.51c-15.8-12.42-21.16-35.48-4-47l.15-.12c11.5-7.84,10.07-19.66,8.25-30.2C16.87,10.89,14.18.08,32.45,0,64.61-.15,75.62,37.72,99.2,25.56A80.56,80.56,0,0,1,113,19.88c12.06-3.67,22.84-3.46,31.69-.52,15.27,5,24.78,18.11,25.32,33.13A56.47,56.47,0,0,1,159.11,87.08Z" fill="#33649e"/></svg>