<svg id="Layer_1" data-name="Layer 1" xmlns="http://www.w3.org/2000/svg" viewBox="0 0 816.41 455.6"><path d="M5.22,388S-31.88,164.1,91.77,69.3,524.3-7.64,615.22,32.2C737.49,85.78,718.2,239,576.75,217.68,449,198.44,505.14,459.41,438,386.66,306.09,243.78,58.28,518.56,5.22,388Z"/><path d="M576,434.5C586,385,581.92,317,637.56,294.37,687,275.82,767.39,308.79,788,244.91c33,45.34,43.27,117.46-2.06,154.56-33,26.79-76.25-6.18-115.41,6.18-24.73,8.24-30.91,47.4-62.43,49.65C588.74,457.39,573.28,448.55,576,434.5Z"/></svg>