<svg xmlns="http://www.w3.org/2000/svg" xmlns:xlink="http://www.w3.org/1999/xlink" viewBox="0 0 188.99 139.43"><defs><linearGradient id="Yellow" x1="78.27" y1="30.03" x2="42.55" y2="155.43" gradientUnits="userSpaceOnUse"><stop offset="0" stop-color="#fff7a6"/><stop offset="0.5" stop-color="#fff143"/><stop offset="1" stop-color="#f7d444"/></linearGradient><linearGradient id="Magenta_2" x1="147.86" y1="7.87" x2="162.86" y2="7.87" gradientTransform="translate(26.67 -79.53) rotate(31.28)" gradientUnits="userSpaceOnUse"><stop offset="0" stop-color="#dd68c4"/><stop offset="0.5" stop-color="#cc4ab3"/><stop offset="1" stop-color="#8a589e"/></linearGradient><linearGradient id="Yellow-2" x1="160.53" y1="56.2" x2="194.68" y2="56.2" gradientTransform="translate(56.03 -89.26) rotate(34.07)" xlink:href="#Yellow"/></defs><g id="Capa_2" data-name="Capa 2"><g id="Layer_1" data-name="Layer 1"><path class="cls-1" d="M143.06,48.69c-.35-7.83-2.46-15.71-7-22.11C121.69,6.1,91.12,5.76,68.81,3.07,43.05,0,16,8.57,4.94,34c-7.28,16.71-5.54,36-1,53.65,3,11.73,7.21,23.27,13.58,33.53q1.25,2,2.59,3.93c4.8,6.84,11.9,13.25,20.54,14.18,11.42,1.22,16.86-6.95,23.5-14.69,16-18.72,42.44-24.63,61.87-39.8a47.51,47.51,0,0,0,11.6-12.44C141.86,65.35,143.43,56.91,143.06,48.69Z"/><path class="cls-2" d="M156,1.45A11.27,11.27,0,0,1,160.32,0a4.94,4.94,0,0,1,4.13,1.49c1.71,2,.94,5.2-.94,7s-4.52,2.51-7,3.16c-3.25.85-12.52,5.22-11.89.18C145.08,8,153,3.07,156,1.45Z"/><path class="cls-3" d="M182.62,53.85a11.81,11.81,0,0,1,5,3,5,5,0,0,1,.94,5.43,5.08,5.08,0,0,1-4.38,2.36,15.2,15.2,0,0,1-5.09-1c-8.88-2.94-17.82-5.74-26.66-8.81C162.79,52.12,172,50,182.62,53.85Z"/></g></g></svg>