<svg id="Layer_1" data-name="Layer 1" xmlns="http://www.w3.org/2000/svg" xmlns:xlink="http://www.w3.org/1999/xlink" viewBox="0 0 2422.36 2422.37"><defs><linearGradient id="linear-gradient" x1="671.5" y1="2512.56" x2="1375.85" y2="2512.56" gradientTransform="matrix(0.3, -0.73, 0.87, 0.36, -1056.86, 496.13)" gradientUnits="userSpaceOnUse"><stop offset="0" stop-color="#662483"/><stop offset="1" stop-color="#e71d73"/></linearGradient><linearGradient id="linear-gradient-2" x1="1193.32" y1="860.17" x2="1475.83" y2="860.17" gradientTransform="matrix(1, 0, 0, 1, 0, 0)" xlink:href="#linear-gradient"/><clipPath id="clip-path"><path d="M1327.12,572.91c-13.84,7.14-28.93,12.41-44.64,16.72s-32.14,7.7-48.61,11.07c-65.89,13.48-132.49,26.61-154.36,95.15-15.32,54.69,17.5,115.94,67.81,137.81,67.81,30.62,135.62-19.69,205.62-17.5,13.12,2.19,24.06,6.56,36.15,9.17a227.58,227.58,0,0,1,33.87,15.6c43.48,24.33,80.91,61.27,120.29,93.35,30.62,24.06,67.81,41.56,105,24.06s52.5-63.43,41.57-102.81q-5.74-21.33-11-42.66c-3.45-14.24-6.67-28.5-9.07-43-14.92-95.86,13.51-189.92,7-286.16-4.37-80.94-102.81-131.25-179.37-107.19-72.19,19.69-76.56,107.19-124.68,157.5C1361.69,544.92,1330.94,568.52,1327.12,572.91Z" fill="none"/></clipPath><linearGradient id="linear-gradient-3" x1="1211.18" x2="1211.18" y2="2422.37" gradientUnits="userSpaceOnUse"><stop offset="0" stop-color="#662783"/><stop offset="1" stop-color="#e62073"/></linearGradient><linearGradient id="linear-gradient-4" x1="1065.62" y1="737.44" x2="1453.71" y2="737.44" gradientTransform="matrix(1, 0, 0, 1, 0, 0)" xlink:href="#linear-gradient"/><linearGradient id="linear-gradient-5" x1="1100.97" y1="758.22" x2="1206.27" y2="758.22" gradientUnits="userSpaceOnUse"><stop offset="0.22" stop-color="#f9b235"/><stop offset="1" stop-color="#fbe90f"/></linearGradient><linearGradient id="linear-gradient-6" x1="1694.44" y1="722.79" x2="1715.05" y2="722.79" xlink:href="#linear-gradient-3"/><linearGradient id="linear-gradient-7" x1="1120.66" y1="895.24" x2="1412.66" y2="895.24" gradientTransform="translate(-191.98 -53.94) rotate(-14.1)" gradientUnits="userSpaceOnUse"><stop offset="0.35" stop-color="#fbe90f"/><stop offset="0.97" stop-color="#f9b235"/></linearGradient><linearGradient id="linear-gradient-8" x1="1525.86" y1="845.32" x2="1611.64" y2="845.32" gradientUnits="userSpaceOnUse"><stop offset="0" stop-color="#f9b235"/><stop offset="1" stop-color="#fbe90f"/></linearGradient></defs><circle cx="1433.39" cy="438.29" r="114.03" transform="translate(726.77 1760.18) rotate(-78.88)" fill="none" stroke="#ffd740" stroke-miterlimit="10" stroke-width="6"/><path d="M1312.56,595.64c-13,6.73-27.25,11.69-42,15.75s-30.28,7.25-45.8,10.43c-62.07,12.7-124.81,25.07-145.42,89.64-14.43,51.52,16.48,109.22,63.88,129.83,63.89,28.85,127.77-18.55,193.72-16.49,12.36,2.06,22.67,6.18,34.06,8.64a213.16,213.16,0,0,1,31.9,14.7c41,22.91,76.24,57.72,113.33,87.94,28.85,22.67,63.88,39.16,98.92,22.67s49.46-59.76,39.15-96.85q-5.4-20.1-10.36-40.19c-3.25-13.42-6.29-26.86-8.55-40.55-14.06-90.31,12.73-178.93,6.55-269.6-4.12-76.25-96.86-123.65-169-101-68,18.55-72.13,101-117.46,148.38C1345.13,569.26,1316.17,591.5,1312.56,595.64Z" fill="url(#linear-gradient)"/><path d="M1279.67,627.24c-13.34,9.43-28.24,17.09-43.93,23.85s-32.26,12.66-48.88,18.55c-66.47,23.57-133.73,46.87-146.5,121.23-8,59,35,117.86,90.43,133.27,74.87,22,138-40.13,211-48,13.94.37,25.94,3.33,38.87,4.28a237,237,0,0,1,37.44,11.29c48.69,18.94,92.93,51.88,138.48,79.48,35.3,20.54,76.46,33.32,112.54,9.74s45.31-73.5,28.23-112.8q-9.06-21.32-17.62-42.71c-5.65-14.29-11.07-28.63-15.67-43.38-29.41-97.38-13.54-199.2-34.33-298.2-16.29-83.42-125.82-121.38-201.84-85.28-72.11,30.93-64,122.43-106.62,181.67C1311.51,593.15,1283,622.13,1279.67,627.24Z" fill="none" stroke="#dadada" stroke-linecap="round" stroke-linejoin="round" stroke-width="3" stroke-dasharray="8.03 8.03"/><path d="M1194.92,827.14c.46-1-1.6-1-1.6-1,47.4-37.1,113.34-43.28,169-24.74,49.46,18.55,117.47,49.46,113.35,105.11-2.06,26.79-55.64,28.85-78.31,10.3-51.52-37.09-98.92-74.19-160-82.59C1224.54,831.57,1210.45,829.15,1194.92,827.14Z" fill="url(#linear-gradient-2)"/><g clip-path="url(#clip-path)"><path d="M2354.65,67.71c90.29,90.29,90.28,236.67,0,327l-1960,1960c-90.28,90.28-236.66,90.28-327,0h0c-90.28-90.29-90.28-236.67,0-326.95l1960-1960c90.29-90.28,236.67-90.28,327,0Z" fill="url(#linear-gradient-3)"/><path d="M1250.33,671.05a10.53,10.53,0,1,1,12.78,7.64A10.52,10.52,0,0,1,1250.33,671.05Zm58.16,192.1a10.53,10.53,0,1,0-12.78-7.64A10.53,10.53,0,0,0,1308.49,863.15Zm-242.55-146.5a10.52,10.52,0,1,0,7.63-12.77A10.52,10.52,0,0,0,1065.94,716.65Zm227.12,85.09a10.53,10.53,0,1,0-12.78-7.65A10.53,10.53,0,0,0,1293.06,801.74ZM1127.34,701.23a10.53,10.53,0,1,0,7.65-12.78A10.53,10.53,0,0,0,1127.34,701.23Zm150.29,39.1a10.53,10.53,0,1,0-12.78-7.64A10.53,10.53,0,0,0,1277.63,740.33Zm-27.47-70a10.53,10.53,0,1,0,7.65-12.78A10.52,10.52,0,0,0,1250.16,670.37Zm-49.67,24.06a10.53,10.53,0,1,0-12.78-7.65A10.52,10.52,0,0,0,1200.49,694.43Zm30,123a10.53,10.53,0,1,0-12.78-7.64A10.51,10.51,0,0,0,1230.44,817.47ZM1215,756.07a10.53,10.53,0,1,0-12.77-7.65A10.53,10.53,0,0,0,1215,756.07Zm-59.89,15a10.53,10.53,0,1,0-12.78-7.65A10.54,10.54,0,0,0,1155.12,771.12Zm32.42-85a10.53,10.53,0,1,0,7.65-12.78A10.53,10.53,0,0,0,1187.54,686.1Zm81.8-19.75a10.53,10.53,0,1,0-7.65,12.77A10.52,10.52,0,0,0,1269.34,666.35Zm47.19,184a10.53,10.53,0,1,0-7.64,12.77A10.54,10.54,0,0,0,1316.53,850.35Zm124.09-238.62a10.53,10.53,0,1,0,12.77,7.65A10.54,10.54,0,0,0,1440.62,611.73ZM1301.1,788.94a10.53,10.53,0,1,0-7.64,12.77A10.53,10.53,0,0,0,1301.1,788.94Zm78.11-161.78a10.53,10.53,0,1,0,12.77,7.65A10.54,10.54,0,0,0,1379.21,627.16Zm-93.54,100.37a10.53,10.53,0,1,0-7.64,12.78A10.53,10.53,0,0,0,1285.67,727.53ZM1256.39,658a10.53,10.53,0,1,0,12.78,7.65A10.53,10.53,0,0,0,1256.39,658Zm75.56-7.4a10.52,10.52,0,1,0-7.64,12.77A10.53,10.53,0,0,0,1332,650.62Zm31.77,122.58a10.52,10.52,0,1,0-7.64,12.78A10.53,10.53,0,0,0,1363.72,773.2Zm-15.43-61.4a10.52,10.52,0,1,0-7.64,12.78A10.53,10.53,0,0,0,1348.29,711.8Zm59.9-15a10.53,10.53,0,1,0-7.65,12.78A10.54,10.54,0,0,0,1408.19,696.75ZM1319,642.29a10.53,10.53,0,1,0,12.77,7.65A10.51,10.51,0,0,0,1319,642.29Z" fill="url(#linear-gradient-4)"/></g><path d="M1204.38,746.07a5.48,5.48,0,0,1-3.81,1.6l-25.82.24-.24,25.81a5.45,5.45,0,0,1-5.41,5.41l-25.81.24-.23,25.81a5.47,5.47,0,0,1-5.41,5.41l-31.18.28a5.46,5.46,0,0,1-.09-10.92l25.81-.23.23-25.81a5.46,5.46,0,0,1,5.41-5.41l25.81-.24.24-25.81a5.45,5.45,0,0,1,5.41-5.41l25.81-.24.24-25.82a5.47,5.47,0,0,1,10.93.1l-.3,31.18A5.47,5.47,0,0,1,1204.38,746.07Z" fill="url(#linear-gradient-5)"/><path d="M1664.59,594a44.65,44.65,0,1,1,44.66-44.65A44.71,44.71,0,0,1,1664.59,594Zm0-68.69a24,24,0,1,0,24.05,24A24.07,24.07,0,0,0,1664.59,525.32Z" fill="#ffd740"/><path d="M1715.05,722.79a10.31,10.31,0,1,1-10.31-10.3A10.31,10.31,0,0,1,1715.05,722.79Z" fill="url(#linear-gradient-6)"/><line x1="1168.59" y1="878.04" x2="1168.59" y2="905.52" fill="none" stroke="#dadada" stroke-linecap="round" stroke-linejoin="round" stroke-width="3" stroke-dasharray="8"/><line x1="1182.33" y1="891.78" x2="1154.85" y2="891.78" fill="none" stroke="#dadada" stroke-linecap="round" stroke-linejoin="round" stroke-width="3" stroke-dasharray="8"/><path d="M1382.11,413.8c2.33-2-37.65,135.71-138.41,176.44-138.88,56.14-170.6-103-83.46-140.52C1255.83,408.52,1369.39,424.73,1382.11,413.8Z" fill="url(#linear-gradient-7)"/><path d="M1200.12,536.43l-32.06-32.06,32.06-32.06,32.06,32.06Zm-17.4-32.06,17.4,17.4,17.4-17.4-17.4-17.4Z" fill="#fff"/><polygon points="1611.64 816.98 1597.1 802.44 1568.75 830.78 1540.41 802.44 1525.87 816.98 1554.21 845.32 1525.87 873.67 1540.41 888.21 1568.75 859.87 1597.1 888.21 1611.64 873.67 1583.3 845.32 1611.64 816.98" fill="url(#linear-gradient-8)"/><path d="M1009.44,1691.64S972.34,1467.7,1096,1372.9s432.53-76.93,523.45-37.09c122.27,53.58,103,206.76-38.47,185.47-127.77-19.23-71.61,241.73-138.76,169C1310.31,1547.38,1062.5,1822.16,1009.44,1691.64Z"/><path d="M1510.52,1698.51c10-49.46,5.88-117.47,61.52-140.14,49.46-18.54,129.83,14.43,150.44-49.46,33,45.34,43.27,117.47-2.06,154.56-33,26.79-76.25-6.18-115.41,6.19-24.73,8.24-30.91,47.39-62.43,49.64C1523.22,1721.39,1507.76,1712.56,1510.52,1698.51Z"/></svg>