<svg xmlns="http://www.w3.org/2000/svg" xmlns:xlink="http://www.w3.org/1999/xlink" viewBox="0 0 143.11 136.97"><defs><linearGradient id="Yellow" x1="78.27" y1="27.57" x2="42.55" y2="152.97" gradientUnits="userSpaceOnUse"><stop offset="0" stop-color="#fff7a6"/><stop offset="0.5" stop-color="#fff143"/><stop offset="1" stop-color="#f7d444"/></linearGradient></defs><g id="Capa_2" data-name="Capa 2"><g id="Layer_1" data-name="Layer 1"><path class="cls-1" d="M143.06,46.23c-.35-7.83-2.46-15.71-7-22.11C121.69,3.65,91.12,3.3,68.81.61,43.05-2.5,16,6.11,4.94,31.56c-7.28,16.71-5.54,36-1,53.65,3,11.73,7.21,23.27,13.58,33.53.83,1.33,1.69,2.65,2.59,3.93,4.8,6.84,11.9,13.25,20.54,14.18,11.42,1.22,16.86-6.95,23.5-14.69,16-18.72,42.44-24.63,61.87-39.8a47.47,47.47,0,0,0,11.6-12.43C141.86,62.89,143.43,54.45,143.06,46.23Z"/></g></g></svg>